<svg xmlns="http://www.w3.org/2000/svg" xmlns:xlink="http://www.w3.org/1999/xlink" viewBox="0 0 360 360"><defs><style>.cls-1{fill:none;}.cls-2{fill:url(#linear-gradient);}.cls-3{fill:url(#linear-gradient-2);}</style><linearGradient id="linear-gradient" x1="236.58" y1="305.85" x2="300.23" y2="305.85" gradientUnits="userSpaceOnUse"><stop offset="0" stop-color="#fff" stop-opacity="0"/><stop offset="1" stop-color="#fff"/></linearGradient><linearGradient id="linear-gradient-2" x1="118.32" y1="58.81" x2="54.68" y2="58.81" xlink:href="#linear-gradient"/><symbol id="satellite_basic_white" data-name="satellite/basic_white" viewBox="0 0 360 360"><rect class="cls-1" width="360" height="360"/><path class="cls-2" d="M299.69,293.26c-.28.44-.49.71-.73,1s-.46.62-.7.92c-.47.6-.94,1.18-1.43,1.75-1,1.12-2,2.22-3,3.26a81.47,81.47,0,0,1-6.47,5.89A87.87,87.87,0,0,1,273,315.56a89.94,89.94,0,0,1-15.79,6.37,68.63,68.63,0,0,1-16.58,2.88,67.75,67.75,0,0,0,15.91-4.76,87.23,87.23,0,0,0,14.41-7.93,82.63,82.63,0,0,0,12.43-10.44,72.88,72.88,0,0,0,5.23-6.05c.82-1.05,1.58-2.13,2.31-3.21.36-.54.71-1.09,1-1.63l.48-.81c.14-.25.32-.57.39-.72a4,4,0,0,1,7.33,3.29,4.35,4.35,0,0,1-.29.52Z"/><path class="cls-3" d="M55.21,71.4c.29-.44.49-.71.73-1l.7-.92c.47-.6,1-1.18,1.43-1.74,1-1.13,2-2.23,3-3.27a79.63,79.63,0,0,1,6.47-5.88A87.29,87.29,0,0,1,82,49.1a89.84,89.84,0,0,1,15.78-6.37,68.8,68.8,0,0,1,16.58-2.88,67.67,67.67,0,0,0-15.9,4.76A86.82,86.82,0,0,0,84,52.54,82.72,82.72,0,0,0,71.58,63,74.67,74.67,0,0,0,66.34,69c-.81,1-1.57,2.13-2.3,3.21-.36.54-.71,1.09-1,1.63l-.47.81c-.15.25-.32.57-.39.72a4,4,0,0,1-7.33-3.29,4.3,4.3,0,0,1,.28-.52Z"/><path class="cls-2" d="M299.69,293.26c-.28.44-.49.71-.73,1s-.46.62-.7.92c-.47.6-.94,1.18-1.43,1.75-1,1.12-2,2.22-3,3.26a81.47,81.47,0,0,1-6.47,5.89A87.87,87.87,0,0,1,273,315.56a89.94,89.94,0,0,1-15.79,6.37,68.63,68.63,0,0,1-16.58,2.88,67.75,67.75,0,0,0,15.91-4.76,87.23,87.23,0,0,0,14.41-7.93,82.63,82.63,0,0,0,12.43-10.44,72.88,72.88,0,0,0,5.23-6.05c.82-1.05,1.58-2.13,2.31-3.21.36-.54.71-1.09,1-1.63l.48-.81c.14-.25.32-.57.39-.72a4,4,0,0,1,7.33,3.29,4.35,4.35,0,0,1-.29.52Z"/><path class="cls-3" d="M55.21,71.4c.29-.44.49-.71.73-1l.7-.92c.47-.6,1-1.18,1.43-1.74,1-1.13,2-2.23,3-3.27a79.63,79.63,0,0,1,6.47-5.88A87.29,87.29,0,0,1,82,49.1a89.84,89.84,0,0,1,15.78-6.37,68.8,68.8,0,0,1,16.58-2.88,67.67,67.67,0,0,0-15.9,4.76A86.82,86.82,0,0,0,84,52.54,82.72,82.72,0,0,0,71.58,63,74.67,74.67,0,0,0,66.34,69c-.81,1-1.57,2.13-2.3,3.21-.36.54-.71,1.09-1,1.63l-.47.81c-.15.25-.32.57-.39.72a4,4,0,0,1-7.33-3.29,4.3,4.3,0,0,1,.28-.52Z"/></symbol></defs><g id="Layer_2" data-name="Layer 2"><g id="satellite"><use width="360" height="360" xlink:href="#satellite_basic_white"/></g></g></svg>