<svg xmlns="http://www.w3.org/2000/svg" xmlns:xlink="http://www.w3.org/1999/xlink" viewBox="0 0 360 360"><defs><style>.cls-1,.cls-3{mix-blend-mode:hard-light;}.cls-1{opacity:0.2;}.cls-2{fill:#fff;}.cls-3{opacity:0.5;}.cls-4{fill:none;}</style><symbol id="backlight_2" data-name="backlight/2" viewBox="0 0 360 360"><g class="cls-1"><path class="cls-2" d="M302.82,182.25c0,11.23-31,17.41-34.34,27.54-3.41,10.5,17.93,33.75,11.56,42.49s-35.15-4.37-44,2.05-5.08,37.79-15.58,41.2c-10.14,3.28-25.58-24.21-36.81-24.21s-26.68,27.49-36.81,24.2c-10.51-3.4-6.84-34.83-15.59-41.19s-37.56,6.77-44-2.05,15-32,11.56-42.49c-3.29-10.13-34.34-16.31-34.34-27.54s31.05-17.41,34.34-27.54C102.25,144.2,80.9,121,87.27,112.22s35.16,4.37,44-2,5.08-37.79,15.59-41.2c10.13-3.28,25.57,24.21,36.81,24.21S210.33,65.69,220.47,69c10.5,3.4,6.83,34.83,15.58,41.19s37.56-6.77,44,2-15,32-11.56,42.49C271.78,164.84,302.82,171,302.82,182.25Z"/></g><g class="cls-3"><path class="cls-2" d="M290,161.4c2.17,11-5.39,22.31-6.67,32.91-1.33,11,3.2,23.72-1.38,33.54s-17.32,14.66-24.77,22.67-11.14,21-20.81,26.36C227,282.06,214,278.47,203,280.64s-21.73,10.4-32.33,9.12c-11-1.32-19.4-12-29.23-16.55s-23.48-4.19-31.51-11.62S101.33,240.71,96,231c-5.2-9.33-16.46-16.9-18.63-27.94s5.39-22.31,6.67-32.91c1.33-11-3.19-23.72,1.38-33.54S102.7,122,110.15,114,121.28,93,131,87.62c9.33-5.19,22.34-1.59,33.38-3.76s21.73-10.4,32.33-9.12c11,1.32,19.41,12,29.23,16.55s23.49,4.19,31.51,11.62,8.58,20.88,14,30.55C276.56,142.79,287.82,150.36,290,161.4Z"/></g><rect class="cls-4" width="360" height="360"/></symbol></defs><g id="Layer_2" data-name="Layer 2"><g id="backlight"><use width="360" height="360" xlink:href="#backlight_2"/></g></g></svg>