<svg xmlns="http://www.w3.org/2000/svg" xmlns:xlink="http://www.w3.org/1999/xlink" viewBox="0 0 360 360"><defs><style>.cls-1,.cls-3{mix-blend-mode:hard-light;}.cls-1{opacity:0.2;}.cls-2{fill:#fff;}.cls-3{opacity:0.5;}.cls-4{fill:none;}</style><symbol id="backlight_3" data-name="backlight/3" viewBox="0 0 360 360"><g class="cls-1"><path class="cls-2" d="M319.8,182.25c0,12.52-41,18.4-44.68,29.7-3.8,11.71,25.76,40.56,18.66,50.31S250,252.81,240.15,260s-2.72,47.9-14.44,51.7c-11.3,3.66-29.53-33.38-42.05-33.38s-30.76,37-42.06,33.38c-11.71-3.8-4.68-44.61-14.44-51.7s-46.45,12.13-53.62,2.29S96,223.66,92.19,212c-3.67-11.3-44.68-17.18-44.68-29.7s41-18.4,44.68-29.7C96,140.84,66.43,112,73.54,102.24s43.77,9.45,53.62,2.29,2.73-47.9,14.44-51.7c11.3-3.66,29.53,33.38,42.06,33.38s30.75-37,42.05-33.38c11.72,3.8,4.69,44.61,14.44,51.7s46.46-12.13,53.63-2.29-22.46,38.6-18.66,50.31C278.8,163.85,319.8,169.73,319.8,182.25Z"/></g><g class="cls-3"><path class="cls-2" d="M305.69,158.32c2.17,11-37,23.47-38.25,34.06-1.33,11,33.58,32.41,29,42.23s-43.56-3-51,5,8.35,45.86-1.32,51.24c-9.33,5.18-33.18-28.1-44.23-25.93s-20.56,42-31.16,40.71c-11-1.33-10.75-42.38-20.58-46.95S107.06,280.76,99,273.32s16.27-40.4,10.88-50.06c-5.19-9.33-46.13-6-48.3-17.08s37-23.47,38.26-34.06c1.33-11-33.59-32.41-29-42.23s43.55,3,51-5S113.51,79,123.18,73.63c9.33-5.18,33.19,28.1,44.23,25.93s20.57-42,31.17-40.71c11,1.33,10.75,42.38,20.57,46.95s41.1-22.06,49.13-14.62-16.28,40.4-10.89,50.06C262.59,150.57,303.52,147.28,305.69,158.32Z"/></g><rect class="cls-4" width="360" height="360"/></symbol></defs><g id="Layer_2" data-name="Layer 2"><g id="backlight"><use width="360" height="360" xlink:href="#backlight_3"/></g></g></svg>