<svg xmlns="http://www.w3.org/2000/svg" xmlns:xlink="http://www.w3.org/1999/xlink" viewBox="0 0 360 360"><defs><style>.cls-1,.cls-3{mix-blend-mode:hard-light;}.cls-1{opacity:0.2;}.cls-2{fill:#fff;}.cls-3{opacity:0.5;}.cls-4{fill:none;}</style><symbol id="backlight_1" data-name="backlight/1" viewBox="0 0 360 360"><g class="cls-1"><path class="cls-2" d="M328.27,182.25c0,14-31.48,22.79-35.58,35.4-4.25,13.07,15.86,38.7,7.94,49.57S262,266.91,251,274.9s-9.6,40.57-22.67,44.81c-12.61,4.09-30.7-23-44.67-23s-32.06,27.06-44.68,23c-13.07-4.24-11.79-36.9-22.67-44.81s-41.62,3.3-49.62-7.68,12.19-36.5,7.94-49.57c-4.1-12.6-35.58-21.42-35.58-35.4s31.48-22.79,35.58-35.4c4.25-13.07-15.87-38.7-7.94-49.57s38.63.31,49.62-7.68S125.91,49,139,44.79c12.62-4.09,30.7,23,44.68,23s32.06-27.06,44.67-23C241.4,49,240.12,81.69,251,89.6s41.63-3.3,49.63,7.68-12.19,36.5-7.94,49.57C296.79,159.45,328.27,168.27,328.27,182.25Z"/></g><g class="cls-3"><path class="cls-2" d="M295.88,160.25c2.17,11-17.24,22.74-18.52,33.34-1.33,11,14.6,27,10,36.8s-27.16,8-34.61,16.05-3.82,30.31-13.5,35.69c-9.33,5.18-26.4-9.54-37.44-7.38s-21.3,22.25-31.9,21c-11-1.33-16.15-23.38-26-28s-30.09,5.65-38.12-1.78.74-28.2-4.64-37.87C96,218.79,73.6,215.3,71.44,204.25S88.67,181.51,90,170.91c1.33-11-14.59-27-10-36.8s27.16-8,34.61-16.05,3.83-30.31,13.5-35.69c9.33-5.18,26.4,9.54,37.45,7.38s21.29-22.25,31.89-21c11,1.33,16.16,23.38,26,28s30.1-5.65,38.12,1.78-.74,28.2,4.64,37.87C271.32,145.71,293.71,149.2,295.88,160.25Z"/></g><rect class="cls-4" width="360" height="360"/></symbol></defs><g id="Layer_2" data-name="Layer 2"><g id="backlight"><use width="360" height="360" xlink:href="#backlight_1"/></g></g></svg>