<svg xmlns="http://www.w3.org/2000/svg" xmlns:xlink="http://www.w3.org/1999/xlink" viewBox="0 0 360 360"><defs><style>.cls-1{fill:none;}.cls-2{mix-blend-mode:multiply;opacity:0.3;}.cls-3{clip-path:url(#clip-path);}.cls-4{fill:#666;}.cls-5{fill:#adadad;}.cls-6{fill:#999;}</style><clipPath id="clip-path"><circle class="cls-1" cx="180" cy="180" r="100"/></clipPath><symbol id="planet_pattern_crater" data-name="planet_pattern/crater" viewBox="0 0 360 360"><rect class="cls-1" width="360" height="360"/><g class="cls-2"><g class="cls-3"><ellipse class="cls-4" cx="148.14" cy="229.09" rx="11.84" ry="15.92" transform="translate(-117.83 289.79) rotate(-69.97)"/><ellipse class="cls-5" cx="148.14" cy="229.09" rx="8.68" ry="13.12" transform="translate(-117.83 289.79) rotate(-69.97)"/><ellipse class="cls-6" cx="147.95" cy="229.66" rx="5.71" ry="10.77" transform="translate(-118.49 290) rotate(-69.97)"/><ellipse class="cls-4" cx="205.89" cy="106.19" rx="14.99" ry="8.69" transform="translate(-14.99 176.03) rotate(-44.83)"/><ellipse class="cls-5" cx="205.89" cy="106.19" rx="12.32" ry="6.38" transform="translate(-16.79 170.08) rotate(-43.29)"/><ellipse class="cls-6" cx="206.12" cy="106.57" rx="10.08" ry="4.21" transform="translate(-18.77 163.73) rotate(-41.6)"/><ellipse class="cls-4" cx="248.34" cy="229.08" rx="7.78" ry="5.78" transform="translate(-87.48 192.02) rotate(-36.39)"/><ellipse class="cls-5" cx="248.34" cy="229.08" rx="6.41" ry="4.24" transform="translate(-87.48 192.02) rotate(-36.39)"/><ellipse class="cls-6" cx="248.52" cy="229.31" rx="5.26" ry="2.79" transform="translate(-87.58 192.17) rotate(-36.39)"/><ellipse class="cls-4" cx="237.08" cy="134.3" rx="5.78" ry="7.78" transform="translate(-14.73 238.41) rotate(-51.99)"/><ellipse class="cls-5" cx="237.08" cy="134.3" rx="4.24" ry="6.41" transform="translate(-14.73 238.41) rotate(-51.99)"/><ellipse class="cls-6" cx="237.25" cy="134.07" rx="2.79" ry="5.26" transform="translate(-14.47 238.46) rotate(-51.99)"/><ellipse class="cls-4" cx="94.95" cy="195.41" rx="7.78" ry="5.78" transform="translate(-120.7 221.75) rotate(-71.05)"/><ellipse class="cls-5" cx="94.95" cy="195.41" rx="6.41" ry="4.24" transform="translate(-120.7 221.75) rotate(-71.05)"/><ellipse class="cls-6" cx="95.23" cy="195.5" rx="5.26" ry="2.79" transform="translate(-120.59 222.07) rotate(-71.05)"/><ellipse class="cls-4" cx="141.64" cy="132.58" rx="5.78" ry="7.78" transform="translate(-37.53 206.99) rotate(-65.66)"/><ellipse class="cls-5" cx="141.64" cy="132.58" rx="4.24" ry="6.41" transform="translate(-37.53 206.99) rotate(-65.66)"/><ellipse class="cls-6" cx="141.75" cy="132.31" rx="2.79" ry="5.26" transform="translate(-37.22 206.93) rotate(-65.66)"/><circle class="cls-5" cx="140.9" cy="174.02" r="8.85"/><path class="cls-4" d="M149.21,92c0-4.89,6.45-8.85,14.42-8.85a21.82,21.82,0,0,1,7.06,1.14c-1.54-3.88-7.21-6.76-14-6.76-8,0-14.42,4-14.42,8.85,0,3.31,3,6.2,7.36,7.71A5.57,5.57,0,0,1,149.21,92Z"/><path class="cls-4" d="M225.14,263.86a8.83,8.83,0,0,1-15,3,8.84,8.84,0,1,0,15.41-5.08A8.9,8.9,0,0,1,225.14,263.86Z"/><circle class="cls-4" cx="204.39" cy="231.89" r="3.57"/><circle class="cls-4" cx="252.22" cy="204.66" r="3.57"/><circle class="cls-4" cx="174.26" cy="254.7" r="6.29"/><circle class="cls-4" cx="222.43" cy="242.96" r="1.45"/><circle class="cls-4" cx="262.82" cy="138.28" r="1.45"/><circle class="cls-4" cx="119.63" cy="243.47" r="2.04"/></g></g></symbol></defs><g id="Layer_2" data-name="Layer 2"><g id="planet_shade"><use width="360" height="360" xlink:href="#planet_pattern_crater"/></g></g></svg>