<svg xmlns="http://www.w3.org/2000/svg" xmlns:xlink="http://www.w3.org/1999/xlink" viewBox="0 0 360 360"><defs><style>.cls-1{fill:none;}.cls-2{mix-blend-mode:multiply;opacity:0.3;}.cls-3{clip-path:url(#clip-path);}</style><clipPath id="clip-path"><circle class="cls-1" cx="180" cy="180" r="100"/></clipPath><symbol id="planet_pattern_porkmark" data-name="planet_pattern/porkmark" viewBox="0 0 360 360"><rect class="cls-1" width="360" height="360"/><g class="cls-2"><g class="cls-3"><circle cx="220.34" cy="229.17" r="14.81"/><circle cx="85.19" cy="224.23" r="9.28"/><circle cx="202.13" cy="251.98" r="2.89"/><circle cx="148.68" cy="246.87" r="1.96"/><circle cx="181.62" cy="218.11" r="1.96"/><circle cx="239.66" cy="118.19" r="1.96"/><circle cx="259.37" cy="210.45" r="1.96"/><circle cx="109.58" cy="209.94" r="1.96"/><circle cx="157.92" cy="100.66" r="1.96"/><circle cx="137.49" cy="90.11" r="1.96"/><circle cx="124.26" cy="238.7" r="1.4"/><circle cx="97.53" cy="186.86" r="1.4"/><circle cx="80" cy="170.68" r="1.4"/><circle cx="198.98" cy="92.56" r="1.4"/><path d="M134.21,178.53a18.64,18.64,0,1,1,18.64-18.64A18.67,18.67,0,0,1,134.21,178.53Zm0-29.61a11,11,0,1,0,11,11A11,11,0,0,0,134.21,148.92Z"/><path d="M269.53,147.38a18.64,18.64,0,1,1,18.64-18.63A18.66,18.66,0,0,1,269.53,147.38Zm0-29.61a11,11,0,1,0,11,11A11,11,0,0,0,269.53,117.77Z"/><path d="M189.27,130.55a9.7,9.7,0,1,1,9.7-9.7A9.72,9.72,0,0,1,189.27,130.55Zm0-11.74a2,2,0,1,0,2,2A2,2,0,0,0,189.27,118.81Z"/></g></g></symbol></defs><g id="Layer_2" data-name="Layer 2"><g id="planet_shade"><use width="360" height="360" xlink:href="#planet_pattern_porkmark"/></g></g></svg>