<svg xmlns="http://www.w3.org/2000/svg" xmlns:xlink="http://www.w3.org/1999/xlink" viewBox="0 0 360 360"><defs><style>.cls-1{fill:none;}.cls-2{mix-blend-mode:multiply;opacity:0.3;}.cls-3{clip-path:url(#clip-path);}.cls-4{fill:#a0a0a0;}</style><clipPath id="clip-path"><circle class="cls-1" cx="180" cy="180" r="100"/></clipPath><symbol id="planet_pattern_stain" data-name="planet_pattern/stain" viewBox="0 0 360 360"><rect class="cls-1" width="360" height="360"/><g class="cls-2"><g class="cls-3"><path class="cls-4" d="M135.86,84c2.49,10.44,10.21,11.34,10.21,25.64S159,130.56,172.4,130.56,189.19,112,201,112s18.39,18.61,31.32,14.53,18.84-20.43,35.41-20.43,27.91-31.77,9.3-31.77-17-19.52-38.13-19.52-28.67,13.39-45.2,13.39-9.95-12-29.24-12S133.36,73.6,135.86,84Z"/><path class="cls-4" d="M73.9,225c2-6.81,9.53-20,33.59-20s21.56,28.37,40.85,28.37,12-20,30.18-20,18.84,11.12,32.69,22.92-5.45,23.83-5.45,32.45-14.3,20.2-29,20.2-5.67-14.3-22.24-21.78-13.85-22-24.51-18.39-12-8.85-23.38-4.08-.45,11.57-17.25,9.3S73.9,225,73.9,225"/><path class="cls-4" d="M241.39,163.92c-9.3.23-13.16,4.09-25.87,4.09s-14.53,2.72-16.12,9.08-11.57,10.21-8.17,15.43,25.42,2.27,28.37,9.3,15.54,13.62,24.57,13.17,7.66-18.84,17-18.84,14.3,14.07,23.15,11.57S305.62,189,298.35,178.3s-12.25-25.58-22-25.2-9.32,11.73-16.46,14.45S250.7,163.7,241.39,163.92Z"/><path class="cls-4" d="M74.81,141c3.9-5.78,12-7,16.57-6.58s7.71,1.36,14.07.91,12.25-.23,13.39,3.86,3.86,4.53,7.94,11.8-1.13,10.19-3,17.35-4.54,4.82-14.3,7.57-8.4-12.44-15.2-15.39-11-10-16.83-7.72S72.51,144.41,74.81,141Z"/><path class="cls-4" d="M240.48,239.5c6-5.17,7-12.48,12.48-12s6.13,5,9.54,4.76,6.12-2.26,9.07,3.64-.45,4.76-4.76,9.53-5.7,5.21-9.76,4.08-8.29-4.31-12.88-3.17S237,242.53,240.48,239.5Z"/><path class="cls-4" d="M139.89,181.62c2.72-7.41,8.17-3.7,16.34-9.45s14.52.15,17-3.48-2-8.4.91-12.26,10.81-3,13,2.27,2.91,8.6,1,13.38-14.65,5-15.33,11.59-.91,10.21-10,11.8-8.4-.45-16.11-.45S137.16,189,139.89,181.62Z"/></g></g></symbol></defs><g id="Layer_2" data-name="Layer 2"><g id="planet_shade"><use width="360" height="360" xlink:href="#planet_pattern_stain"/></g></g></svg>