<svg xmlns="http://www.w3.org/2000/svg" xmlns:xlink="http://www.w3.org/1999/xlink" viewBox="0 0 360 360"><defs><style>.cls-1{fill:none;}.cls-2{clip-path:url(#clip-path);}.cls-3{fill:#dae7ef;}</style><clipPath id="clip-path"><path class="cls-1" d="M0,0V360H360V0ZM180.33,280.33a100,100,0,1,1,100-100A100,100,0,0,1,180.33,280.33Z"/></clipPath><symbol id="ring_basic" data-name="ring/basic" viewBox="0 0 360 360"><g class="cls-2"><path class="cls-3" d="M294.58,241.44c-7.17,0-17.07-1.13-30.77-4-26.3-5.54-59.88-16.2-94.56-30S102.85,178.21,80,164.14c-34.72-21.32-35.74-31.3-33.49-36.95s10.17-12.4,51.71-3.36a5,5,0,0,1-2.13,9.78c-28.47-6.2-38.49-4.15-40.23-2.69.26,2.29,6.27,10.82,31.85,26.2,22.21,13.36,52.5,27.92,85.28,41S237.72,221.44,263,227c29.14,6.43,39.38,4.37,41.14,2.89-.26-2.23-6-10.52-30.55-25.43a5,5,0,1,1,5.2-8.54c35.87,21.81,37,32,34.7,37.69C312.05,237.35,308.26,241.44,294.58,241.44Z"/></g><path class="cls-3" d="M269.43,238.6l-4.9-1c-26.4-5.5-60.24-16.22-95.28-30.19-34.69-13.83-66.4-29.19-89.29-43.25l-4.26-2.62L80.93,153l4.26,2.62c22.42,13.77,53.59,28.86,87.76,42.48,34.52,13.76,67.77,24.3,93.62,29.69l4.9,1Z"/></symbol></defs><g id="Layer_2" data-name="Layer 2"><g id="ring"><use width="360" height="360" xlink:href="#ring_basic"/></g></g></svg>