<svg xmlns="http://www.w3.org/2000/svg" xmlns:xlink="http://www.w3.org/1999/xlink" viewBox="0 0 360 360"><defs><style>.cls-1{fill:#fff;}.cls-2{mix-blend-mode:multiply;opacity:0.15;}.cls-3{fill:none;}</style><symbol id="mask_default" data-name="mask/default" viewBox="0 0 360 360"><path class="cls-1" d="M205.82,177.53l17.3-3a10.12,10.12,0,0,1,3.34,0l19.48,3.08a10.19,10.19,0,0,1,8.6,10v4.05a10.16,10.16,0,0,1-6.77,9.58,61.83,61.83,0,0,1-43.65,0,10.14,10.14,0,0,1-6.77-9.58v-4.16A10.18,10.18,0,0,1,205.82,177.53Z"/><path class="cls-2" d="M206.74,184.37a.27.27,0,0,1-.26-.25.27.27,0,0,1,.25-.28c.08,0,8.42-.57,19.21-.57s19.6.57,19.69.57a.27.27,0,0,1,.24.28.27.27,0,0,1-.28.25c-.08,0-8.87-.57-19.65-.57s-19.09.56-19.18.57Z"/><path class="cls-2" d="M225.91,191.72a157.71,157.71,0,0,1-22.1-1.51.25.25,0,0,1-.21-.3.26.26,0,0,1,.3-.22,157.08,157.08,0,0,0,22,1.5,170.6,170.6,0,0,0,22.55-1.5.27.27,0,0,1,.3.22.26.26,0,0,1-.22.3A170.77,170.77,0,0,1,225.91,191.72Z"/><path class="cls-2" d="M226,198.79a101.19,101.19,0,0,1-16.44-1.32.26.26,0,1,1,.1-.52A100.62,100.62,0,0,0,226,198.26,109,109,0,0,0,242.72,197a.27.27,0,0,1,.31.21.28.28,0,0,1-.22.31A109.48,109.48,0,0,1,226,198.79Z"/><rect class="cls-3" width="360" height="360"/></symbol></defs><g id="Layer_2" data-name="Layer 2"><g id="mask"><use width="360" height="360" xlink:href="#mask_default"/></g></g></svg>