<svg xmlns="http://www.w3.org/2000/svg" xmlns:xlink="http://www.w3.org/1999/xlink" viewBox="0 0 360 360"><defs><style>.cls-1,.cls-3{fill:none;}.cls-2{clip-path:url(#clip-path);}.cls-3{stroke:#fff;stroke-linecap:round;stroke-miterlimit:10;stroke-width:10px;}.cls-4{fill:#fff;mix-blend-mode:soft-light;opacity:0.5;}.cls-5{mix-blend-mode:multiply;opacity:0.15;}</style><clipPath id="clip-path"><circle class="cls-1" cx="180" cy="180" r="100"/></clipPath><symbol id="planet_shade_default" data-name="planet_shade/default" viewBox="0 0 360 360"><rect class="cls-1" width="360" height="360"/><g class="cls-2"><path class="cls-3" d="M131.61,109.18"/><path class="cls-4" d="M125,118.91a3,3,0,0,1-2-5.2,78,78,0,0,1,7.2-5.95,3,3,0,1,1,3.52,4.86,73.45,73.45,0,0,0-6.65,5.49A3,3,0,0,1,125,118.91Z"/><path class="cls-3" d="M124.68,114.89"/><path class="cls-3" d="M116.83,123.05"/><path class="cls-4" d="M96,173.13a1.94,1.94,0,0,1-.34,0,3,3,0,0,1-2.64-3.32c1-9.29,4.09-23,12.64-35.69a129.58,129.58,0,0,1,9.16-12,3,3,0,0,1,4.54,3.92,122.33,122.33,0,0,0-8.73,11.44C102.8,149.1,100,161.84,99,170.47A3,3,0,0,1,96,173.13Z"/><path class="cls-5" d="M276.17,163.59c1.36,53.41-37.23,93.51-81,100.54-27.54,4.43-59.29-1.92-79.07-7.24A100,100,0,0,0,275.59,150.56C275.85,154.66,276.05,159,276.17,163.59Z"/></g></symbol></defs><g id="Layer_2" data-name="Layer 2"><g id="planet_shade"><use width="360" height="360" xlink:href="#planet_shade_default"/></g></g></svg>