<svg width="800" height="796" viewBox="0 0 800 796" fill="none" xmlns="http://www.w3.org/2000/svg">
<circle r="95.3121" transform="matrix(-0.943695 -0.330817 -0.330817 0.943695 508.658 508.658)" fill="#8AA4BC"/>
<g style="mix-blend-mode:overlay" opacity="0.3">
<mask id="mask0_480_3999" style="mask-type:alpha" maskUnits="userSpaceOnUse" x="413" y="413" width="191" height="191">
<circle r="95.3121" transform="matrix(-0.943695 -0.330817 -0.330817 0.943695 508.658 508.658)" fill="white"/>
</mask>
<g mask="url(#mask0_480_3999)">
<ellipse rx="27.164" ry="27.164" transform="matrix(-0.943695 -0.330817 -0.330817 0.943695 538.824 585.387)" fill="white"/>
<ellipse rx="14.2968" ry="14.2968" transform="matrix(-0.943695 -0.330817 -0.330817 0.943695 539.89 477.187)" fill="white"/>
<ellipse rx="20.0156" ry="20.0155" transform="matrix(-0.943695 -0.330817 -0.330817 0.943695 473.164 425.516)" fill="white"/>
<ellipse rx="7.62498" ry="7.62497" transform="matrix(-0.943695 -0.330817 -0.330817 0.943695 449.274 528.24)" fill="white"/>
</g>
</g>
<mask id="mask1_480_3999" style="mask-type:alpha" maskUnits="userSpaceOnUse" x="413" y="413" width="191" height="191">
<circle r="95.3121" transform="matrix(-0.943695 -0.330817 -0.330817 0.943695 508.658 508.658)" fill="white"/>
</mask>
<g mask="url(#mask1_480_3999)">
<g style="mix-blend-mode:soft-light" opacity="0.5">
<path d="M574.664 476.037C575.206 476.219 575.79 476.234 576.34 476.081C576.891 475.928 577.384 475.614 577.754 475.178C578.124 474.742 578.355 474.206 578.417 473.638C578.479 473.07 578.37 472.496 578.103 471.99C576.718 469.36 575.179 466.814 573.494 464.365C573.287 464.04 573.016 463.76 572.698 463.543C572.38 463.325 572.022 463.174 571.644 463.098C571.266 463.022 570.877 463.024 570.499 463.102C570.122 463.181 569.764 463.334 569.448 463.554C569.132 463.774 568.863 464.057 568.658 464.383C568.454 464.71 568.318 465.074 568.258 465.455C568.198 465.836 568.215 466.225 568.309 466.598C568.403 466.972 568.572 467.323 568.804 467.63C570.355 469.889 571.771 472.237 573.045 474.662C573.388 475.311 573.968 475.803 574.664 476.037Z" fill="white"/>
</g>
<g style="mix-blend-mode:soft-light" opacity="0.5">
<path d="M583.597 533.93L583.921 534.044C584.288 534.128 584.667 534.14 585.038 534.077C585.409 534.015 585.764 533.88 586.083 533.68C586.401 533.48 586.677 533.22 586.895 532.913C587.113 532.607 587.268 532.261 587.352 531.894C589.385 523.214 590.916 509.913 587.227 495.803C586.015 491.158 584.527 486.59 582.771 482.122C582.641 481.761 582.44 481.431 582.18 481.15C581.92 480.869 581.606 480.643 581.257 480.486C580.908 480.329 580.53 480.243 580.148 480.234C579.765 480.225 579.385 480.294 579.029 480.435C578.673 480.576 578.348 480.787 578.076 481.055C577.803 481.324 577.586 481.646 577.44 481.999C577.293 482.353 577.22 482.733 577.223 483.116C577.226 483.499 577.306 483.876 577.458 484.228C579.13 488.485 580.545 492.84 581.694 497.268C585.103 510.219 583.616 522.555 581.767 530.623C581.617 531.302 581.721 532.013 582.057 532.622C582.394 533.231 582.942 533.696 583.597 533.93Z" fill="white"/>
</g>
<g style="mix-blend-mode:multiply" opacity="0.15">
<path d="M427.366 463.477C409.306 511.079 431.372 559.315 468.524 579.44C491.898 592.108 522.455 596.417 541.924 597.869C522.678 605.042 501.63 605.806 481.915 600.048C462.199 594.29 444.872 582.316 432.513 565.912C420.153 549.508 413.423 529.551 413.325 509.012C413.227 488.473 419.766 468.452 431.969 451.931C430.473 455.537 428.928 459.368 427.366 463.477Z" fill="black"/>
</g>
</g>
<path d="M439.073 476.781C438.074 479.632 440.388 480.463 443.24 481.463C446.091 482.462 448.411 483.276 449.417 480.407C449.898 479.035 449.814 477.528 449.184 476.218C448.554 474.909 447.43 473.903 446.058 473.422C444.687 472.941 443.18 473.025 441.87 473.654C440.56 474.284 439.554 475.409 439.073 476.781Z" fill="#161C2D"/>
<path d="M497.367 497.216C496.367 500.067 498.673 500.895 501.533 501.898C504.393 502.901 506.705 503.711 507.711 500.842C508.191 499.471 508.108 497.964 507.478 496.654C506.848 495.344 505.723 494.338 504.352 493.857C502.98 493.376 501.474 493.46 500.164 494.09C498.854 494.72 497.848 495.845 497.367 497.216Z" fill="#161C2D"/>
<path d="M464.055 508.344C475.442 512.336 483.834 507.673 484.189 507.464C484.461 507.31 484.7 507.104 484.892 506.857C485.084 506.611 485.225 506.33 485.308 506.029C485.391 505.728 485.415 505.413 485.376 505.103C485.338 504.793 485.238 504.494 485.084 504.222C484.93 503.951 484.724 503.712 484.477 503.52C484.231 503.328 483.95 503.187 483.649 503.104C483.348 503.021 483.032 502.998 482.723 503.036C482.413 503.075 482.114 503.174 481.842 503.328C481.532 503.492 474.86 507.082 465.632 503.847C459.984 501.853 455.222 497.93 452.183 492.769C451.899 492.205 451.403 491.777 450.802 491.579C450.202 491.381 449.548 491.43 448.984 491.714C448.419 491.998 447.991 492.494 447.793 493.094C447.595 493.695 447.643 494.349 447.927 494.913C451.498 501.197 457.229 505.97 464.055 508.344Z" fill="#161C2D"/>
<g clip-path="url(#clip0_480_3999)">
<mask id="mask2_480_3999" style="mask-type:alpha" maskUnits="userSpaceOnUse" x="290" y="289" width="438" height="439">
<path d="M727.328 403.475L613.817 727.279L290.013 613.768L403.524 289.964L727.328 403.475ZM476.73 598.757C494.519 604.993 513.759 605.814 532.015 601.116C550.271 596.417 566.723 586.412 579.293 572.363C591.862 558.314 599.983 540.853 602.629 522.189C605.275 503.525 602.327 484.494 594.157 467.506C585.988 450.517 572.964 436.333 556.733 426.746C540.501 417.159 521.792 412.6 502.97 413.646C484.148 414.693 466.059 421.297 450.991 432.624C435.922 443.95 424.551 459.491 418.315 477.28C414.168 489.094 412.39 501.608 413.081 514.108C413.772 526.609 416.919 538.851 422.343 550.135C427.766 561.419 435.359 571.524 444.689 579.873C454.019 588.222 464.902 594.651 476.717 598.793L476.73 598.757Z" fill="white"/>
</mask>
<g mask="url(#mask2_480_3999)">
<path d="M386.147 527.294C392.605 529.558 401.857 531.66 415.085 533.398C440.487 536.708 474.055 537.699 509.597 536.23C545.138 534.761 578.524 530.911 603.555 525.486C641.501 517.244 645.562 508.598 645.319 502.807C645.077 497.016 640.091 488.45 599.868 483.48C598.62 483.339 597.368 483.697 596.382 484.475C595.396 485.252 594.757 486.387 594.603 487.634C594.45 488.88 594.795 490.136 595.563 491.129C596.33 492.123 597.459 492.774 598.704 492.94C626.263 496.349 634.638 501.355 635.746 503.208C634.781 505.183 626.682 510.969 598.834 516.74C574.635 521.751 542.803 525.287 509.191 526.725C475.58 528.163 443.574 527.296 419.038 524.341C390.8 520.936 382.239 515.854 381.123 513.968C382.063 512.035 389.837 506.398 416.62 500.728C417.251 500.618 417.853 500.382 418.39 500.034C418.928 499.686 419.39 499.233 419.749 498.703C420.108 498.172 420.356 497.575 420.479 496.946C420.601 496.318 420.596 495.671 420.463 495.044C420.33 494.418 420.073 493.825 419.706 493.3C419.338 492.775 418.869 492.33 418.326 491.991C417.783 491.652 417.177 491.425 416.544 491.325C415.911 491.225 415.265 491.254 414.644 491.41C375.495 499.714 371.274 508.526 371.549 514.369C371.723 518.107 373.846 522.971 386.147 527.294Z" fill="#DAE7EF"/>
</g>
<path d="M409.677 532.663L414.39 533.306C439.879 536.686 473.688 537.711 509.609 536.194C545.172 534.693 578.537 530.875 603.568 525.449L608.226 524.436L606.199 515.12L601.541 516.134C577.034 521.45 544.239 525.195 509.21 526.671C473.823 528.163 440.602 527.163 415.642 523.857L410.928 523.214L409.677 532.663Z" fill="#DAE7EF"/>
</g>
<circle cx="255.957" cy="122.957" r="43.9477" transform="rotate(27.9524 255.957 122.957)" fill="#F3DCF4"/>
<mask id="mask3_480_3999" style="mask-type:alpha" maskUnits="userSpaceOnUse" x="212" y="79" width="88" height="88">
<circle cx="255.957" cy="122.957" r="43.9477" transform="rotate(27.9524 255.957 122.957)" fill="white"/>
</mask>
<g mask="url(#mask3_480_3999)">
<g style="mix-blend-mode:soft-light" opacity="0.5">
<path d="M246.354 90.3943C246.123 90.2678 245.935 90.0749 245.815 89.8404C245.695 89.606 245.647 89.3408 245.679 89.0792C245.71 88.8175 245.82 88.5716 245.993 88.3728C246.166 88.1739 246.394 88.0312 246.649 87.9636C247.973 87.6099 249.317 87.3345 250.674 87.1389C250.849 87.1074 251.028 87.1116 251.201 87.1511C251.375 87.1907 251.538 87.2649 251.682 87.3692C251.826 87.4735 251.947 87.6058 252.039 87.7581C252.13 87.9105 252.19 88.0796 252.214 88.2556C252.239 88.4316 252.227 88.6109 252.181 88.7824C252.134 88.9538 252.053 89.1139 251.943 89.2533C251.833 89.3928 251.696 89.5086 251.54 89.5938C251.384 89.6789 251.212 89.7316 251.035 89.7488C249.785 89.9304 248.547 90.1855 247.327 90.5123C246.999 90.5993 246.651 90.557 246.354 90.3943Z" fill="white"/>
</g>
<g style="mix-blend-mode:soft-light" opacity="0.5">
<path d="M223.951 105.482L223.811 105.407C223.668 105.31 223.545 105.185 223.45 105.04C223.355 104.895 223.29 104.732 223.258 104.562C223.226 104.391 223.228 104.216 223.264 104.047C223.299 103.877 223.368 103.716 223.466 103.573C225.77 100.169 229.796 95.4886 235.729 92.3236C237.681 91.2808 239.694 90.3553 241.757 89.5521C241.92 89.4835 242.095 89.4482 242.271 89.4484C242.448 89.4486 242.622 89.4843 242.785 89.5534C242.947 89.6224 243.094 89.7234 243.217 89.8503C243.34 89.9772 243.436 90.1272 243.499 90.292C243.563 90.4567 243.593 90.6325 243.587 90.809C243.582 90.9855 243.54 91.1594 243.466 91.3197C243.392 91.48 243.287 91.6236 243.156 91.7424C243.026 91.8612 242.873 91.9524 242.706 92.0108C240.741 92.7765 238.823 93.6597 236.964 94.6556C231.511 97.5531 227.798 101.916 225.644 105.067C225.46 105.33 225.187 105.517 224.876 105.594C224.564 105.67 224.235 105.63 223.951 105.482Z" fill="white"/>
</g>
<g style="mix-blend-mode:multiply" opacity="0.15">
<path d="M296.693 136.355C286.221 157.365 262.979 164.983 244.539 158.696C232.935 154.742 221.916 145.741 215.333 139.601C218.925 148.364 225.251 155.732 233.37 160.608C241.488 165.484 250.965 167.607 260.388 166.661C269.811 165.714 278.676 161.75 285.663 155.357C292.65 148.964 297.386 140.486 299.164 131.184C298.41 132.819 297.596 134.541 296.693 136.355Z" fill="black"/>
</g>
</g>
<path d="M261.711 121.17L261.565 121.212L261.521 121.069C261.462 120.868 261.364 120.68 261.232 120.517C261.099 120.354 260.936 120.219 260.752 120.119C260.567 120.02 260.364 119.958 260.155 119.937C259.947 119.916 259.736 119.937 259.535 119.999C259.335 120.06 259.148 120.16 258.986 120.294C258.825 120.428 258.692 120.593 258.594 120.778C258.496 120.964 258.437 121.168 258.418 121.377C258.4 121.586 258.423 121.796 258.487 121.996L258.997 123.66C259.058 123.859 259.157 124.044 259.29 124.205C259.422 124.366 259.585 124.499 259.769 124.596C259.953 124.694 260.154 124.754 260.362 124.774C260.569 124.793 260.778 124.772 260.977 124.71L262.641 124.2C263.025 124.063 263.342 123.783 263.525 123.418C263.708 123.053 263.744 122.631 263.624 122.241C263.504 121.851 263.238 121.522 262.882 121.322C262.526 121.123 262.107 121.068 261.711 121.17Z" fill="#161C2D"/>
<path d="M286.867 134.518L286.724 134.562L286.677 134.417C286.623 134.21 286.529 134.015 286.398 133.845C286.267 133.675 286.103 133.534 285.916 133.429C285.729 133.324 285.522 133.258 285.309 133.235C285.096 133.213 284.88 133.233 284.675 133.296C284.47 133.359 284.28 133.463 284.117 133.601C283.953 133.74 283.819 133.91 283.722 134.101C283.626 134.293 283.57 134.502 283.557 134.716C283.544 134.93 283.574 135.145 283.647 135.347L284.157 137.01C284.217 137.209 284.317 137.395 284.449 137.556C284.582 137.716 284.744 137.849 284.928 137.947C285.112 138.044 285.314 138.105 285.521 138.124C285.728 138.144 285.937 138.122 286.136 138.061L287.8 137.551C288.002 137.491 288.189 137.393 288.352 137.26C288.514 137.128 288.649 136.964 288.749 136.78C288.848 136.595 288.909 136.392 288.929 136.183C288.95 135.974 288.928 135.763 288.867 135.563C288.805 135.362 288.704 135.176 288.57 135.015C288.436 134.854 288.271 134.721 288.085 134.623C287.899 134.526 287.696 134.467 287.487 134.449C287.278 134.431 287.067 134.455 286.867 134.518Z" fill="#161C2D"/>
<path d="M268.82 140.758C266.133 139.333 265.513 135.421 267.406 131.853C269.299 128.285 272.884 126.611 275.57 128.036C278.257 129.462 278.878 133.373 276.987 136.937C275.096 140.501 271.506 142.184 268.82 140.758ZM274.54 129.977C272.988 129.153 270.618 130.488 269.347 132.883C268.076 135.278 268.305 137.997 269.85 138.817C271.395 139.637 273.772 138.306 275.046 135.907C276.319 133.508 276.085 130.797 274.54 129.977Z" fill="#161C2D"/>
<circle r="38.5546" transform="matrix(-0.957163 0.289548 0.289548 0.957163 537.52 118.52)" fill="#65A395"/>
<mask id="mask4_480_3999" style="mask-type:alpha" maskUnits="userSpaceOnUse" x="498" y="79" width="79" height="79">
<circle r="38.5546" transform="matrix(-0.957163 0.289548 0.289548 0.957163 537.52 118.52)" fill="white"/>
</mask>
<g mask="url(#mask4_480_3999)">
<g style="mix-blend-mode:soft-light" opacity="0.5">
<path d="M551.296 92.1143C551.516 92.0445 551.71 91.9102 551.854 91.7288C551.997 91.5474 552.083 91.3271 552.1 91.0965C552.117 90.8659 552.064 90.6357 551.949 90.4353C551.834 90.2349 551.661 90.0733 551.453 89.972C550.373 89.4435 549.263 88.979 548.128 88.5811C547.983 88.5243 547.828 88.4976 547.672 88.5023C547.516 88.507 547.363 88.5433 547.222 88.6087C547.08 88.6741 546.953 88.7675 546.849 88.8832C546.744 88.9988 546.664 89.1343 546.613 89.2817C546.563 89.429 546.542 89.5853 546.553 89.7408C546.564 89.8963 546.607 90.0478 546.678 90.1865C546.749 90.3251 546.848 90.448 546.968 90.5477C547.088 90.6474 547.226 90.7218 547.376 90.7665C548.421 91.1344 549.444 91.5635 550.439 92.0514C550.706 92.1816 551.013 92.2041 551.296 92.1143Z" fill="white"/>
</g>
<g style="mix-blend-mode:soft-light" opacity="0.5">
<path d="M568.028 108.893L568.161 108.852C568.301 108.793 568.427 108.706 568.534 108.597C568.64 108.488 568.724 108.359 568.78 108.218C568.836 108.077 568.864 107.926 568.862 107.774C568.86 107.622 568.829 107.471 568.768 107.332C567.361 104.011 564.688 99.3015 560.116 95.573C558.611 94.345 557.035 93.2077 555.396 92.1672C555.267 92.0806 555.123 92.0206 554.971 91.991C554.819 91.9613 554.662 91.9625 554.511 91.9944C554.359 92.0263 554.215 92.0884 554.088 92.1768C553.961 92.2653 553.853 92.3783 553.771 92.5093C553.688 92.6403 553.632 92.7866 553.607 92.9395C553.582 93.0923 553.588 93.249 553.625 93.3995C553.662 93.55 553.728 93.6916 553.821 93.8159C553.913 93.9403 554.029 94.0446 554.163 94.1231C555.725 95.1148 557.226 96.1996 558.658 97.3715C562.862 100.788 565.319 105.173 566.641 108.249C566.754 108.507 566.957 108.714 567.213 108.833C567.468 108.951 567.758 108.973 568.028 108.893Z" fill="white"/>
</g>
<g style="mix-blend-mode:multiply" opacity="0.15">
<path d="M500.186 123.159C505.646 143.017 524.363 153.508 541.3 151.216C551.958 149.776 562.967 143.892 569.673 139.721C565.098 146.656 558.405 151.928 550.592 154.752C542.778 157.576 534.261 157.799 526.31 155.39C518.359 152.981 511.398 148.068 506.465 141.383C501.532 134.698 498.891 126.598 498.935 118.29C499.306 119.825 499.716 121.445 500.186 123.159Z" fill="black"/>
</g>
</g>
<path d="M509.947 126.188C508.775 126.542 507.538 125.88 507.184 124.708C506.829 123.536 507.492 122.298 508.664 121.944C509.836 121.589 511.073 122.252 511.427 123.424C511.782 124.596 511.119 125.833 509.947 126.188Z" fill="#161C2D"/>
<path d="M533.86 118.954C532.689 119.308 531.451 118.646 531.097 117.474C530.742 116.302 531.405 115.064 532.577 114.71C533.749 114.355 534.986 115.018 535.341 116.19C535.695 117.362 535.032 118.599 533.86 118.954Z" fill="#161C2D"/>
<path d="M522.553 128.017C527.092 126.644 529.032 124.281 529.11 124.181C529.271 123.982 529.346 123.728 529.32 123.473C529.293 123.219 529.166 122.986 528.968 122.825C528.769 122.664 528.514 122.588 528.26 122.615C528.005 122.642 527.772 122.768 527.611 122.967C527.575 123.01 525.895 124.992 521.995 126.172C517.983 127.386 515.088 126.735 515.058 126.728C514.934 126.698 514.806 126.694 514.68 126.714C514.555 126.734 514.434 126.778 514.326 126.845C514.218 126.911 514.124 126.999 514.05 127.102C513.975 127.205 513.922 127.322 513.893 127.446C513.864 127.57 513.86 127.698 513.881 127.823C513.901 127.949 513.947 128.069 514.014 128.177C514.082 128.284 514.17 128.377 514.274 128.451C514.377 128.525 514.494 128.577 514.618 128.605C514.764 128.634 518.062 129.376 522.553 128.017Z" fill="#161C2D"/>
<circle cx="229.083" cy="401.083" r="21.7726" transform="rotate(-13.1583 229.083 401.083)" fill="#E0AB84"/>
<mask id="mask5_480_3999" style="mask-type:alpha" maskUnits="userSpaceOnUse" x="207" y="379" width="44" height="44">
<circle cx="229.083" cy="401.083" r="21.7726" transform="rotate(-13.1583 229.083 401.083)" fill="white"/>
</mask>
<g mask="url(#mask5_480_3999)">
<g style="mix-blend-mode:soft-light" opacity="0.5">
<path d="M214.892 392.056C214.764 392.085 214.631 392.074 214.51 392.025C214.389 391.977 214.284 391.894 214.211 391.786C214.138 391.678 214.098 391.55 214.098 391.42C214.098 391.289 214.137 391.161 214.21 391.053C214.589 390.49 215.001 389.949 215.444 389.434C215.499 389.366 215.567 389.309 215.644 389.267C215.722 389.225 215.807 389.2 215.895 389.192C215.982 389.184 216.071 389.194 216.155 389.221C216.238 389.248 216.316 389.292 216.382 389.349C216.449 389.407 216.503 389.478 216.541 389.557C216.58 389.636 216.602 389.722 216.606 389.81C216.61 389.898 216.597 389.986 216.566 390.069C216.536 390.151 216.489 390.227 216.429 390.291C216.021 390.766 215.642 391.264 215.293 391.784C215.199 391.923 215.056 392.02 214.892 392.056Z" fill="white"/>
</g>
<g style="mix-blend-mode:soft-light" opacity="0.5">
<path d="M211.444 404.986L211.367 405.004C211.282 405.014 211.196 405.007 211.113 404.984C211.03 404.961 210.953 404.921 210.885 404.868C210.818 404.815 210.762 404.749 210.72 404.674C210.678 404.599 210.651 404.517 210.641 404.432C210.392 402.41 210.37 399.352 211.554 396.238C211.943 395.213 212.393 394.211 212.901 393.24C212.94 393.161 212.993 393.091 213.059 393.034C213.125 392.976 213.202 392.933 213.285 392.905C213.368 392.878 213.456 392.868 213.543 392.875C213.631 392.883 213.715 392.908 213.793 392.948C213.87 392.989 213.939 393.045 213.994 393.113C214.049 393.18 214.091 393.259 214.115 393.343C214.14 393.427 214.147 393.515 214.137 393.602C214.127 393.688 214.1 393.772 214.056 393.848C213.572 394.774 213.144 395.729 212.775 396.706C211.683 399.564 211.718 402.402 211.94 404.28C211.958 404.438 211.917 404.597 211.825 404.727C211.734 404.857 211.598 404.949 211.444 404.986Z" fill="white"/>
</g>
<g style="mix-blend-mode:multiply" opacity="0.15">
<path d="M248.653 392.815C251.588 404.068 245.394 414.483 236.463 418.143C230.844 420.447 223.798 420.676 219.341 420.529C223.536 422.63 228.298 423.319 232.917 422.495C237.536 421.67 241.764 419.376 244.974 415.953C248.183 412.53 250.2 408.163 250.726 403.5C251.252 398.838 250.257 394.131 247.891 390.079C248.142 390.935 248.399 391.843 248.653 392.815Z" fill="black"/>
</g>
</g>
<path d="M245.67 395.549C245.746 395.872 245.69 396.212 245.515 396.494C245.34 396.776 245.06 396.977 244.736 397.053C244.413 397.128 244.073 397.072 243.791 396.897C243.509 396.722 243.308 396.442 243.232 396.119C243.075 395.444 243.632 395.372 244.307 395.214C244.981 395.057 245.513 394.875 245.67 395.549Z" fill="#161C2D"/>
<path d="M231.93 398.761C232.006 399.084 231.95 399.424 231.774 399.706C231.599 399.988 231.319 400.189 230.996 400.265C230.673 400.341 230.333 400.285 230.05 400.109C229.768 399.934 229.567 399.654 229.492 399.331C229.334 398.657 229.894 398.584 230.566 398.427C231.238 398.27 231.772 398.087 231.93 398.761Z" fill="#161C2D"/>
<path d="M242.881 399.684L235.113 401.5C234.972 401.533 234.824 401.509 234.702 401.433C234.579 401.357 234.492 401.235 234.459 401.094C234.426 400.954 234.45 400.806 234.526 400.683C234.603 400.561 234.724 400.473 234.865 400.44L242.633 398.624C242.774 398.591 242.921 398.616 243.044 398.692C243.167 398.768 243.254 398.89 243.287 399.03C243.32 399.171 243.295 399.319 243.219 399.441C243.143 399.564 243.021 399.651 242.881 399.684Z" fill="#161C2D"/>
<circle cx="273.957" cy="488.957" r="30.846" transform="rotate(-23.3008 273.957 488.957)" fill="#DB6E6E"/>
<mask id="mask6_480_3999" style="mask-type:alpha" maskUnits="userSpaceOnUse" x="243" y="458" width="62" height="62">
<circle cx="273.957" cy="488.957" r="30.846" transform="rotate(-23.3008 273.957 488.957)" fill="white"/>
</mask>
<g mask="url(#mask6_480_3999)">
<g style="mix-blend-mode:soft-light" opacity="0.5">
<path d="M251.913 479.909C251.743 479.98 251.554 479.998 251.373 479.961C251.192 479.924 251.026 479.833 250.897 479.701C250.767 479.569 250.681 479.401 250.648 479.219C250.615 479.037 250.637 478.849 250.712 478.68C251.1 477.799 251.54 476.943 252.029 476.114C252.088 476.005 252.17 475.908 252.267 475.831C252.365 475.753 252.477 475.697 252.598 475.664C252.718 475.631 252.844 475.622 252.967 475.639C253.091 475.656 253.21 475.698 253.317 475.762C253.424 475.826 253.517 475.911 253.59 476.011C253.664 476.112 253.716 476.227 253.744 476.348C253.772 476.47 253.775 476.596 253.753 476.719C253.731 476.841 253.685 476.959 253.616 477.063C253.166 477.827 252.762 478.617 252.405 479.428C252.309 479.646 252.133 479.818 251.913 479.909Z" fill="white"/>
</g>
<g style="mix-blend-mode:soft-light" opacity="0.5">
<path d="M250.331 498.8L250.229 498.844C250.112 498.88 249.99 498.892 249.869 498.88C249.748 498.869 249.63 498.833 249.523 498.776C249.415 498.718 249.32 498.64 249.243 498.546C249.166 498.452 249.108 498.344 249.073 498.227C248.221 495.471 247.428 491.211 248.302 486.573C248.589 485.046 248.966 483.537 249.433 482.055C249.467 481.936 249.524 481.825 249.602 481.728C249.68 481.632 249.776 481.552 249.885 481.493C249.994 481.435 250.114 481.399 250.237 481.387C250.361 481.376 250.485 481.389 250.603 481.427C250.721 481.464 250.831 481.525 250.925 481.606C251.019 481.686 251.096 481.785 251.151 481.896C251.207 482.007 251.239 482.128 251.246 482.252C251.254 482.375 251.237 482.499 251.196 482.616C250.752 484.028 250.393 485.466 250.121 486.921C249.312 491.179 250.069 495.128 250.847 497.691C250.911 497.908 250.893 498.139 250.798 498.344C250.703 498.548 250.537 498.71 250.331 498.8Z" fill="white"/>
</g>
<g style="mix-blend-mode:multiply" opacity="0.15">
<path d="M299.186 472.543C306.087 487.506 300.047 503.575 288.505 510.907C281.243 515.522 271.475 517.6 265.222 518.506C271.597 520.39 278.409 520.163 284.645 517.861C290.88 515.559 296.205 511.304 299.827 505.73C303.449 500.156 305.173 493.562 304.743 486.928C304.313 480.295 301.752 473.979 297.441 468.919C298.005 470.05 298.59 471.252 299.186 472.543Z" fill="black"/>
</g>
</g>
<path d="M272.843 485.598C273.331 486.731 274.596 488.218 276.15 487.724C277.703 487.229 278.253 485.847 277.765 484.714L272.843 485.598Z" fill="#161C2D"/>
<path d="M295.824 475.7C296.312 476.833 296.521 478.776 295.097 479.564C293.673 480.351 292.285 479.804 291.797 478.67L295.824 475.7Z" fill="#161C2D"/>
<path d="M292.85 483.564C292.753 483.606 292.648 483.628 292.542 483.628C292.436 483.628 292.332 483.606 292.235 483.563C290.393 482.881 288.362 482.916 286.545 483.663C285.698 484.009 284.935 484.531 284.307 485.196C283.679 485.86 283.199 486.651 282.902 487.516C282.844 487.708 282.713 487.87 282.538 487.967C282.363 488.065 282.157 488.09 281.963 488.038C281.769 487.986 281.604 487.861 281.501 487.689C281.398 487.516 281.367 487.311 281.413 487.116C281.771 486.026 282.361 485.027 283.141 484.187C283.922 483.346 284.875 482.684 285.935 482.246C288.138 481.319 290.615 481.28 292.847 482.138C292.985 482.197 293.103 482.296 293.185 482.422C293.268 482.547 293.311 482.694 293.311 482.845C293.311 482.995 293.266 483.142 293.183 483.267C293.1 483.393 292.982 483.491 292.844 483.55L292.85 483.564Z" fill="#161C2D"/>
<circle cx="302.5" cy="53.5" r="1.5" fill="white"/>
<circle cx="550.5" cy="231.5" r="1.5" fill="white"/>
<circle cx="254.5" cy="597.5" r="1.5" fill="white"/>
<circle cx="559.5" cy="669.5" r="1.5" fill="white"/>
<circle cx="729.5" cy="354.5" r="1.5" fill="white"/>
<circle cx="91.5" cy="314.5" r="1.5" fill="white"/>
<circle cx="46.5" cy="98.5" r="1.5" fill="white"/>
<circle cx="730.5" cy="59.5" r="1.5" fill="white"/>
<circle cx="144.5" cy="649.5" r="1.5" fill="white"/>
<circle cx="121.5" cy="461.5" r="1.5" fill="white"/>
<circle cx="747.5" cy="649.5" r="1.5" fill="white"/>
<circle cx="43.5" cy="581.5" r="1.5" fill="white"/>
<circle cx="247.5" cy="317.5" r="1.5" fill="white"/>
<circle cx="224.5" cy="233.5" r="1.5" fill="white"/>
<defs>
<clipPath id="clip0_480_3999">
<rect width="343.124" height="343.124" fill="white" transform="matrix(-0.943695 -0.330817 -0.330817 0.943695 727.315 403.511)"/>
</clipPath>
</defs>
</svg>
