<svg width="390" height="796" viewBox="0 0 390 796" fill="none" xmlns="http://www.w3.org/2000/svg">
<circle r="95.3121" transform="matrix(-0.943695 -0.330817 -0.330817 0.943695 303.658 508.658)" fill="#8AA4BC"/>
<g style="mix-blend-mode:overlay" opacity="0.3">
<mask id="mask0_409_1653" style="mask-type:alpha" maskUnits="userSpaceOnUse" x="208" y="413" width="191" height="191">
<circle r="95.3121" transform="matrix(-0.943695 -0.330817 -0.330817 0.943695 303.658 508.658)" fill="white"/>
</mask>
<g mask="url(#mask0_409_1653)">
<ellipse rx="27.164" ry="27.164" transform="matrix(-0.943695 -0.330817 -0.330817 0.943695 333.824 585.387)" fill="white"/>
<ellipse rx="14.2968" ry="14.2968" transform="matrix(-0.943695 -0.330817 -0.330817 0.943695 334.89 477.187)" fill="white"/>
<ellipse rx="20.0156" ry="20.0155" transform="matrix(-0.943695 -0.330817 -0.330817 0.943695 268.164 425.516)" fill="white"/>
<ellipse rx="7.62498" ry="7.62497" transform="matrix(-0.943695 -0.330817 -0.330817 0.943695 244.274 528.24)" fill="white"/>
</g>
</g>
<mask id="mask1_409_1653" style="mask-type:alpha" maskUnits="userSpaceOnUse" x="208" y="413" width="191" height="191">
<circle r="95.3121" transform="matrix(-0.943695 -0.330817 -0.330817 0.943695 303.658 508.658)" fill="white"/>
</mask>
<g mask="url(#mask1_409_1653)">
<g style="mix-blend-mode:soft-light" opacity="0.5">
<path d="M369.664 476.037C370.206 476.219 370.79 476.234 371.34 476.081C371.891 475.928 372.384 475.614 372.754 475.178C373.124 474.742 373.355 474.206 373.417 473.638C373.479 473.07 373.37 472.496 373.103 471.99C371.718 469.36 370.179 466.814 368.494 464.365C368.287 464.04 368.016 463.76 367.698 463.543C367.38 463.325 367.022 463.174 366.644 463.098C366.266 463.022 365.877 463.024 365.499 463.102C365.122 463.181 364.764 463.334 364.448 463.554C364.132 463.774 363.863 464.057 363.659 464.383C363.454 464.71 363.318 465.074 363.258 465.455C363.198 465.836 363.215 466.225 363.309 466.598C363.403 466.972 363.572 467.323 363.805 467.63C365.355 469.889 366.771 472.237 368.045 474.662C368.388 475.311 368.968 475.803 369.664 476.037Z" fill="white"/>
</g>
<g style="mix-blend-mode:soft-light" opacity="0.5">
<path d="M378.597 533.93L378.921 534.044C379.288 534.128 379.667 534.14 380.038 534.077C380.409 534.015 380.764 533.88 381.083 533.68C381.401 533.48 381.677 533.22 381.895 532.913C382.113 532.607 382.268 532.261 382.352 531.894C384.385 523.214 385.916 509.913 382.227 495.803C381.015 491.158 379.527 486.59 377.771 482.122C377.641 481.761 377.44 481.431 377.18 481.15C376.92 480.869 376.606 480.643 376.257 480.486C375.908 480.329 375.53 480.243 375.148 480.234C374.765 480.225 374.385 480.294 374.029 480.435C373.673 480.576 373.348 480.787 373.075 481.055C372.803 481.324 372.586 481.646 372.44 481.999C372.293 482.353 372.22 482.733 372.223 483.116C372.226 483.499 372.305 483.876 372.458 484.228C374.13 488.485 375.545 492.84 376.694 497.268C380.103 510.219 378.616 522.555 376.767 530.623C376.617 531.302 376.721 532.013 377.057 532.622C377.394 533.231 377.942 533.696 378.597 533.93Z" fill="white"/>
</g>
<g style="mix-blend-mode:multiply" opacity="0.15">
<path d="M222.366 463.477C204.306 511.079 226.372 559.315 263.524 579.44C286.898 592.108 317.455 596.417 336.924 597.869C317.678 605.042 296.63 605.806 276.915 600.048C257.199 594.29 239.872 582.316 227.513 565.912C215.153 549.508 208.423 529.551 208.325 509.012C208.227 488.473 214.766 468.452 226.969 451.931C225.473 455.537 223.928 459.368 222.366 463.477Z" fill="black"/>
</g>
</g>
<path d="M234.073 476.781C233.074 479.632 235.388 480.463 238.24 481.463C241.091 482.462 243.411 483.276 244.417 480.407C244.898 479.035 244.814 477.528 244.184 476.218C243.554 474.909 242.43 473.903 241.058 473.422C239.687 472.941 238.18 473.025 236.87 473.654C235.56 474.284 234.554 475.409 234.073 476.781Z" fill="#161C2D"/>
<path d="M292.367 497.216C291.367 500.067 293.673 500.895 296.533 501.898C299.393 502.901 301.705 503.711 302.711 500.842C303.191 499.471 303.108 497.964 302.478 496.654C301.848 495.344 300.723 494.338 299.352 493.857C297.98 493.376 296.474 493.46 295.164 494.09C293.854 494.72 292.848 495.845 292.367 497.216Z" fill="#161C2D"/>
<path d="M259.055 508.344C270.442 512.336 278.834 507.673 279.189 507.464C279.461 507.31 279.7 507.104 279.892 506.857C280.084 506.611 280.225 506.33 280.308 506.029C280.391 505.728 280.415 505.413 280.376 505.103C280.338 504.793 280.238 504.494 280.084 504.222C279.93 503.951 279.724 503.712 279.477 503.52C279.231 503.328 278.95 503.187 278.648 503.104C278.347 503.021 278.032 502.998 277.723 503.036C277.413 503.075 277.114 503.174 276.842 503.328C276.532 503.492 269.86 507.082 260.632 503.847C254.984 501.853 250.222 497.93 247.183 492.769C246.899 492.205 246.403 491.777 245.802 491.579C245.202 491.381 244.548 491.43 243.984 491.714C243.419 491.998 242.991 492.494 242.793 493.094C242.595 493.695 242.643 494.349 242.927 494.913C246.498 501.197 252.229 505.97 259.055 508.344Z" fill="#161C2D"/>
<g clip-path="url(#clip0_409_1653)">
<mask id="mask2_409_1653" style="mask-type:alpha" maskUnits="userSpaceOnUse" x="85" y="289" width="438" height="439">
<path d="M522.328 403.475L408.817 727.279L85.0125 613.768L198.524 289.964L522.328 403.475ZM271.73 598.757C289.519 604.993 308.759 605.814 327.015 601.116C345.271 596.417 361.723 586.412 374.293 572.363C386.862 558.314 394.983 540.853 397.629 522.189C400.275 503.525 397.327 484.494 389.157 467.506C380.988 450.517 367.964 436.333 351.733 426.746C335.501 417.159 316.792 412.6 297.97 413.646C279.148 414.693 261.059 421.297 245.991 432.624C230.922 443.95 219.551 459.491 213.315 477.28C209.168 489.094 207.39 501.608 208.081 514.108C208.772 526.609 211.919 538.851 217.343 550.135C222.766 561.419 230.359 571.524 239.689 579.873C249.019 588.222 259.902 594.651 271.717 598.793L271.73 598.757Z" fill="white"/>
</mask>
<g mask="url(#mask2_409_1653)">
<path d="M181.147 527.294C187.605 529.558 196.857 531.66 210.085 533.398C235.487 536.708 269.055 537.699 304.597 536.23C340.138 534.761 373.524 530.911 398.555 525.486C436.501 517.244 440.562 508.598 440.319 502.807C440.077 497.016 435.091 488.45 394.868 483.48C393.62 483.339 392.368 483.697 391.382 484.475C390.396 485.252 389.757 486.387 389.603 487.634C389.45 488.88 389.795 490.136 390.563 491.129C391.33 492.123 392.459 492.774 393.704 492.94C421.263 496.349 429.638 501.355 430.746 503.208C429.781 505.183 421.682 510.969 393.834 516.74C369.635 521.751 337.803 525.287 304.191 526.725C270.58 528.163 238.574 527.296 214.038 524.341C185.8 520.936 177.239 515.854 176.123 513.968C177.063 512.035 184.837 506.398 211.62 500.728C212.251 500.618 212.853 500.382 213.39 500.034C213.928 499.686 214.39 499.233 214.749 498.703C215.108 498.172 215.356 497.575 215.479 496.946C215.601 496.318 215.596 495.671 215.463 495.044C215.33 494.418 215.073 493.825 214.706 493.3C214.338 492.775 213.869 492.33 213.326 491.991C212.783 491.652 212.177 491.425 211.544 491.325C210.911 491.225 210.265 491.254 209.644 491.41C170.495 499.714 166.274 508.526 166.549 514.369C166.723 518.107 168.846 522.971 181.147 527.294Z" fill="#DAE7EF"/>
</g>
<path d="M204.677 532.663L209.39 533.306C234.879 536.686 268.688 537.711 304.609 536.194C340.172 534.693 373.537 530.875 398.568 525.449L403.226 524.436L401.199 515.12L396.541 516.134C372.034 521.45 339.239 525.195 304.211 526.671C268.823 528.163 235.602 527.163 210.642 523.857L205.929 523.214L204.677 532.663Z" fill="#DAE7EF"/>
</g>
<circle cx="50.957" cy="122.957" r="43.9477" transform="rotate(27.9524 50.957 122.957)" fill="#F3DCF4"/>
<mask id="mask3_409_1653" style="mask-type:alpha" maskUnits="userSpaceOnUse" x="7" y="79" width="88" height="88">
<circle cx="50.957" cy="122.957" r="43.9477" transform="rotate(27.9524 50.957 122.957)" fill="white"/>
</mask>
<g mask="url(#mask3_409_1653)">
<g style="mix-blend-mode:soft-light" opacity="0.5">
<path d="M41.3544 90.3943C41.1232 90.2678 40.9355 90.0749 40.815 89.8404C40.6946 89.606 40.647 89.3408 40.6787 89.0792C40.7105 88.8175 40.8199 88.5716 40.9928 88.3728C41.1658 88.1739 41.3945 88.0312 41.6492 87.9636C42.9734 87.6099 44.3173 87.3345 45.6739 87.1389C45.8487 87.1074 46.0281 87.1116 46.2013 87.1511C46.3746 87.1907 46.5379 87.2649 46.6818 87.3692C46.8257 87.4735 46.9471 87.6058 47.0385 87.7581C47.1299 87.9105 47.1898 88.0796 47.2142 88.2556C47.2386 88.4316 47.2271 88.6109 47.1805 88.7824C47.1339 88.9538 47.0529 89.1139 46.9428 89.2533C46.8327 89.3928 46.6956 89.5086 46.5396 89.5938C46.3836 89.6789 46.212 89.7316 46.0351 89.7488C44.7851 89.9304 43.5468 90.1855 42.3266 90.5123C41.9994 90.5993 41.6513 90.557 41.3544 90.3943Z" fill="white"/>
</g>
<g style="mix-blend-mode:soft-light" opacity="0.5">
<path d="M18.9509 105.482L18.811 105.407C18.6677 105.31 18.5452 105.185 18.4503 105.04C18.3554 104.895 18.2901 104.732 18.258 104.562C18.226 104.391 18.2279 104.216 18.2636 104.047C18.2993 103.877 18.3679 103.716 18.4659 103.573C20.7699 100.169 24.7958 95.4886 30.7291 92.3236C32.6815 91.2808 34.6945 90.3553 36.7571 89.5521C36.9198 89.4835 37.0947 89.4482 37.2712 89.4484C37.4478 89.4486 37.6225 89.4843 37.785 89.5534C37.9475 89.6224 38.0945 89.7234 38.2172 89.8503C38.34 89.9772 38.4357 90.1272 38.4993 90.292C38.5629 90.4567 38.5931 90.6325 38.5874 90.809C38.5817 90.9855 38.5406 91.1594 38.4666 91.3197C38.3926 91.48 38.2869 91.6236 38.1562 91.7424C38.0256 91.8612 37.8728 91.9524 37.7062 92.0108C35.741 92.7765 33.8233 93.6597 31.9641 94.6556C26.5111 97.5531 22.7981 101.916 20.6437 105.067C20.4604 105.33 20.1873 105.517 19.8757 105.594C19.564 105.67 19.2353 105.63 18.9509 105.482Z" fill="white"/>
</g>
<g style="mix-blend-mode:multiply" opacity="0.15">
<path d="M91.6931 136.355C81.2207 157.365 57.9792 164.983 39.5393 158.696C27.9355 154.742 16.9158 145.741 10.333 139.601C13.9247 148.364 20.2511 155.732 28.3697 160.608C36.4883 165.484 45.9649 167.607 55.3879 166.661C64.8109 165.714 73.6762 161.75 80.6633 155.357C87.6505 148.964 92.3858 140.486 94.1637 131.184C93.4105 132.819 92.5962 134.541 91.6931 136.355Z" fill="black"/>
</g>
</g>
<path d="M56.7114 121.17L56.5648 121.212L56.5211 121.069C56.462 120.868 56.3636 120.68 56.2315 120.517C56.0994 120.354 55.9362 120.219 55.7515 120.119C55.5668 120.02 55.3642 119.958 55.1554 119.937C54.9466 119.916 54.736 119.937 54.5353 119.999C54.3347 120.06 54.1479 120.16 53.9864 120.294C53.8248 120.428 53.6914 120.593 53.5939 120.778C53.4964 120.964 53.4368 121.168 53.4184 121.377C53.3999 121.586 53.4232 121.796 53.4867 121.996L53.9972 123.66C54.0579 123.859 54.157 124.044 54.2895 124.205C54.4219 124.366 54.5849 124.499 54.7688 124.596C54.9527 124.694 55.1543 124.754 55.3616 124.774C55.5689 124.793 55.7779 124.772 55.9769 124.71L57.6406 124.2C58.025 124.063 58.3419 123.783 58.525 123.418C58.7081 123.053 58.7435 122.631 58.6238 122.241C58.5041 121.851 58.2383 121.522 57.8821 121.322C57.5259 121.123 57.1067 121.068 56.7114 121.17Z" fill="#161C2D"/>
<path d="M81.8671 134.518L81.7243 134.562L81.6768 134.417C81.6233 134.21 81.5286 134.015 81.3978 133.845C81.267 133.675 81.1029 133.534 80.9159 133.429C80.7288 133.324 80.5223 133.258 80.3091 133.235C80.0958 133.213 79.8804 133.233 79.6754 133.296C79.4704 133.359 79.2804 133.463 79.1166 133.601C78.9528 133.74 78.8186 133.91 78.7224 134.101C78.6262 134.293 78.5701 134.502 78.557 134.716C78.5439 134.93 78.5744 135.145 78.6466 135.347L79.1567 137.01C79.2174 137.209 79.3169 137.395 79.4493 137.556C79.5818 137.716 79.7443 137.849 79.9283 137.947C80.1122 138.044 80.3138 138.105 80.5211 138.124C80.7284 138.144 80.9374 138.122 81.1364 138.061L82.8004 137.551C83.0016 137.491 83.1888 137.393 83.3516 137.26C83.5143 137.128 83.6494 136.964 83.7485 136.78C83.8477 136.595 83.9091 136.392 83.9294 136.183C83.9497 135.974 83.9282 135.763 83.8665 135.563C83.8048 135.362 83.7041 135.176 83.5699 135.015C83.4357 134.854 83.2708 134.721 83.0848 134.623C82.8989 134.526 82.6956 134.467 82.4866 134.449C82.2776 134.431 82.0669 134.455 81.8671 134.518Z" fill="#161C2D"/>
<path d="M63.8197 140.758C61.1334 139.333 60.5127 135.421 62.4058 131.853C64.2989 128.285 67.884 126.611 70.5704 128.036C73.2568 129.462 73.8777 133.373 71.9866 136.937C70.0955 140.501 66.5061 142.184 63.8197 140.758ZM69.5404 129.977C67.9876 129.153 65.6178 130.488 64.3468 132.883C63.0758 135.278 63.3047 137.997 64.8497 138.817C66.3948 139.637 68.7725 138.306 70.0456 135.907C71.3186 133.508 71.0855 130.797 69.5404 129.977Z" fill="#161C2D"/>
<circle r="38.5546" transform="matrix(-0.957163 0.289548 0.289548 0.957163 332.52 118.52)" fill="#65A395"/>
<mask id="mask4_409_1653" style="mask-type:alpha" maskUnits="userSpaceOnUse" x="293" y="79" width="79" height="79">
<circle r="38.5546" transform="matrix(-0.957163 0.289548 0.289548 0.957163 332.52 118.52)" fill="white"/>
</mask>
<g mask="url(#mask4_409_1653)">
<g style="mix-blend-mode:soft-light" opacity="0.5">
<path d="M346.296 92.1143C346.516 92.0445 346.71 91.9102 346.854 91.7288C346.997 91.5474 347.083 91.3271 347.1 91.0965C347.117 90.8659 347.064 90.6357 346.949 90.4353C346.834 90.2349 346.661 90.0733 346.453 89.972C345.373 89.4435 344.263 88.979 343.128 88.5811C342.983 88.5243 342.828 88.4976 342.672 88.5023C342.516 88.507 342.363 88.5433 342.222 88.6087C342.08 88.6741 341.953 88.7675 341.849 88.8832C341.744 88.9988 341.664 89.1343 341.613 89.2817C341.563 89.429 341.542 89.5853 341.553 89.7408C341.564 89.8963 341.607 90.0478 341.678 90.1865C341.749 90.3251 341.848 90.448 341.968 90.5477C342.088 90.6474 342.226 90.7218 342.376 90.7665C343.421 91.1344 344.444 91.5635 345.439 92.0514C345.706 92.1816 346.013 92.2041 346.296 92.1143Z" fill="white"/>
</g>
<g style="mix-blend-mode:soft-light" opacity="0.5">
<path d="M363.028 108.893L363.161 108.852C363.301 108.793 363.427 108.706 363.534 108.597C363.64 108.488 363.724 108.359 363.78 108.218C363.836 108.077 363.864 107.926 363.862 107.774C363.86 107.622 363.829 107.471 363.768 107.332C362.361 104.011 359.688 99.3015 355.116 95.573C353.611 94.345 352.035 93.2077 350.396 92.1672C350.267 92.0806 350.123 92.0206 349.971 91.991C349.819 91.9613 349.662 91.9625 349.511 91.9944C349.359 92.0263 349.215 92.0884 349.088 92.1768C348.961 92.2653 348.853 92.3783 348.771 92.5093C348.688 92.6403 348.632 92.7866 348.607 92.9395C348.582 93.0923 348.588 93.249 348.625 93.3995C348.662 93.55 348.728 93.6916 348.821 93.8159C348.913 93.9403 349.029 94.0446 349.163 94.1231C350.725 95.1148 352.226 96.1996 353.658 97.3715C357.862 100.788 360.319 105.173 361.641 108.249C361.754 108.507 361.957 108.714 362.213 108.833C362.468 108.951 362.758 108.973 363.028 108.893Z" fill="white"/>
</g>
<g style="mix-blend-mode:multiply" opacity="0.15">
<path d="M295.186 123.159C300.646 143.017 319.363 153.508 336.3 151.216C346.958 149.776 357.967 143.892 364.673 139.721C360.098 146.656 353.405 151.928 345.592 154.752C337.778 157.576 329.261 157.799 321.31 155.39C313.359 152.981 306.398 148.068 301.465 141.383C296.533 134.698 293.891 126.598 293.935 118.29C294.306 119.825 294.716 121.445 295.186 123.159Z" fill="black"/>
</g>
</g>
<path d="M304.947 126.188C303.776 126.542 302.538 125.88 302.184 124.708C301.829 123.536 302.492 122.298 303.664 121.944C304.836 121.589 306.073 122.252 306.427 123.424C306.782 124.596 306.119 125.833 304.947 126.188Z" fill="#161C2D"/>
<path d="M328.861 118.954C327.689 119.308 326.451 118.646 326.097 117.474C325.742 116.302 326.405 115.064 327.577 114.71C328.749 114.355 329.986 115.018 330.341 116.19C330.695 117.362 330.032 118.599 328.861 118.954Z" fill="#161C2D"/>
<path d="M317.553 128.017C322.092 126.644 324.032 124.281 324.11 124.181C324.271 123.982 324.346 123.728 324.32 123.473C324.293 123.219 324.166 122.986 323.968 122.825C323.769 122.664 323.514 122.588 323.26 122.615C323.005 122.642 322.772 122.768 322.611 122.967C322.575 123.01 320.895 124.992 316.995 126.172C312.983 127.386 310.088 126.735 310.058 126.728C309.934 126.698 309.806 126.694 309.68 126.714C309.555 126.734 309.434 126.778 309.326 126.845C309.218 126.911 309.124 126.999 309.05 127.102C308.975 127.205 308.922 127.322 308.893 127.446C308.864 127.57 308.86 127.698 308.881 127.823C308.902 127.949 308.947 128.069 309.014 128.177C309.082 128.284 309.17 128.377 309.274 128.451C309.377 128.525 309.494 128.577 309.618 128.605C309.764 128.634 313.062 129.376 317.553 128.017Z" fill="#161C2D"/>
<circle cx="24.0832" cy="401.083" r="21.7726" transform="rotate(-13.1583 24.0832 401.083)" fill="#E0AB84"/>
<mask id="mask5_409_1653" style="mask-type:alpha" maskUnits="userSpaceOnUse" x="2" y="379" width="44" height="44">
<circle cx="24.0832" cy="401.083" r="21.7726" transform="rotate(-13.1583 24.0832 401.083)" fill="white"/>
</mask>
<g mask="url(#mask5_409_1653)">
<g style="mix-blend-mode:soft-light" opacity="0.5">
<path d="M9.89168 392.056C9.76416 392.085 9.63126 392.074 9.50994 392.025C9.38862 391.977 9.28446 391.894 9.21108 391.786C9.13769 391.678 9.09842 391.55 9.09822 391.42C9.09801 391.289 9.13688 391.161 9.20992 391.053C9.58899 390.49 10.0009 389.949 10.4436 389.434C10.4986 389.366 10.5669 389.309 10.6445 389.267C10.722 389.225 10.8072 389.2 10.8948 389.192C10.9825 389.184 11.0709 389.194 11.1547 389.221C11.2384 389.248 11.3159 389.292 11.3823 389.349C11.4487 389.407 11.5029 389.478 11.5413 389.557C11.5798 389.636 11.6017 389.722 11.606 389.81C11.6103 389.898 11.5969 389.986 11.5664 390.069C11.5359 390.151 11.489 390.227 11.4286 390.291C11.0211 390.766 10.642 391.264 10.293 391.784C10.1992 391.923 10.0555 392.02 9.89168 392.056Z" fill="white"/>
</g>
<g style="mix-blend-mode:soft-light" opacity="0.5">
<path d="M6.44371 404.986L6.36732 405.004C6.28201 405.014 6.1956 405.007 6.11289 404.984C6.03019 404.961 5.95284 404.921 5.88537 404.868C5.81789 404.815 5.76163 404.749 5.71969 404.674C5.67775 404.599 5.65089 404.517 5.64089 404.432C5.39196 402.41 5.37023 399.352 6.55394 396.238C6.94304 395.213 7.39296 394.211 7.90122 393.24C7.93959 393.161 7.99339 393.091 8.05936 393.034C8.12534 392.976 8.20217 392.933 8.28532 392.905C8.36846 392.878 8.45623 392.868 8.54339 392.875C8.63055 392.883 8.71518 392.908 8.79257 392.948C8.86995 392.989 8.9385 393.045 8.99387 393.113C9.04924 393.18 9.09051 393.259 9.11511 393.343C9.1397 393.427 9.14705 393.515 9.13698 393.602C9.12691 393.688 9.0996 393.772 9.05645 393.848C8.57232 394.774 8.14418 395.729 7.77461 396.706C6.68302 399.564 6.71834 402.402 6.94042 404.28C6.95778 404.438 6.91691 404.597 6.82547 404.727C6.73403 404.857 6.59829 404.949 6.44371 404.986Z" fill="white"/>
</g>
<g style="mix-blend-mode:multiply" opacity="0.15">
<path d="M43.6532 392.815C46.5882 404.068 40.3943 414.483 31.4631 418.143C25.8439 420.447 18.7983 420.676 14.3411 420.529C18.5363 422.63 23.2979 423.319 27.9167 422.495C32.5355 421.67 36.7643 419.376 39.9735 415.953C43.1826 412.53 45.2003 408.163 45.726 403.5C46.2517 398.838 45.2573 394.131 42.8909 390.079C43.1423 390.935 43.3993 391.843 43.6532 392.815Z" fill="black"/>
</g>
</g>
<path d="M40.6704 395.549C40.746 395.872 40.6899 396.212 40.5148 396.494C40.3396 396.776 40.0597 396.977 39.7364 397.053C39.413 397.128 39.0728 397.072 38.7907 396.897C38.5087 396.722 38.3079 396.442 38.2323 396.119C38.0747 395.444 38.6324 395.372 39.3066 395.214C39.9808 395.057 40.5128 394.875 40.6704 395.549Z" fill="#161C2D"/>
<path d="M26.9299 398.761C27.0055 399.084 26.9497 399.424 26.7745 399.706C26.5993 399.988 26.3192 400.189 25.9959 400.265C25.6726 400.341 25.3325 400.285 25.0505 400.109C24.7684 399.934 24.5674 399.654 24.4918 399.331C24.3342 398.657 24.894 398.584 25.5661 398.427C26.2382 398.27 26.7723 398.087 26.9299 398.761Z" fill="#161C2D"/>
<path d="M37.8808 399.684L30.1127 401.5C29.9721 401.533 29.8243 401.509 29.7016 401.433C29.579 401.357 29.4916 401.235 29.4587 401.094C29.4259 400.954 29.4503 400.806 29.5264 400.683C29.6026 400.561 29.7243 400.473 29.8649 400.44L37.633 398.624C37.7736 398.591 37.9214 398.616 38.0441 398.692C38.1667 398.768 38.2541 398.89 38.287 399.03C38.3198 399.171 38.2954 399.319 38.2193 399.441C38.1431 399.564 38.0214 399.651 37.8808 399.684Z" fill="#161C2D"/>
<circle cx="68.9569" cy="488.957" r="30.846" transform="rotate(-23.3008 68.9569 488.957)" fill="#DB6E6E"/>
<mask id="mask6_409_1653" style="mask-type:alpha" maskUnits="userSpaceOnUse" x="38" y="458" width="62" height="62">
<circle cx="68.9569" cy="488.957" r="30.846" transform="rotate(-23.3008 68.9569 488.957)" fill="white"/>
</mask>
<g mask="url(#mask6_409_1653)">
<g style="mix-blend-mode:soft-light" opacity="0.5">
<path d="M46.9134 479.909C46.7426 479.98 46.5545 479.998 46.3733 479.961C46.1921 479.924 46.026 479.833 45.8967 479.701C45.7674 479.569 45.6809 479.401 45.648 479.219C45.6151 479.037 45.6375 478.849 45.7123 478.68C46.1004 477.799 46.54 476.943 47.0289 476.114C47.0885 476.005 47.1696 475.908 47.2673 475.831C47.3651 475.753 47.4774 475.697 47.5977 475.664C47.718 475.631 47.8438 475.622 47.9674 475.639C48.0909 475.656 48.2098 475.698 48.3169 475.762C48.4239 475.826 48.517 475.911 48.5904 476.011C48.6638 476.112 48.7158 476.227 48.7438 476.348C48.7718 476.47 48.7749 476.596 48.753 476.719C48.7311 476.841 48.6846 476.959 48.6163 477.063C48.1665 477.827 47.7622 478.617 47.4051 479.428C47.309 479.646 47.1329 479.818 46.9134 479.909Z" fill="white"/>
</g>
<g style="mix-blend-mode:soft-light" opacity="0.5">
<path d="M45.3307 498.8L45.2286 498.844C45.1122 498.88 44.99 498.892 44.8689 498.88C44.7477 498.869 44.63 498.833 44.5227 498.776C44.4153 498.718 44.3204 498.64 44.2432 498.546C44.166 498.452 44.108 498.344 44.0727 498.227C43.2213 495.471 42.428 491.211 43.3019 486.573C43.5887 485.046 43.9664 483.537 44.4328 482.055C44.4667 481.936 44.5242 481.825 44.6019 481.728C44.6796 481.632 44.7759 481.552 44.8851 481.493C44.9942 481.435 45.1141 481.399 45.2375 481.387C45.3609 481.376 45.4851 481.389 45.6032 481.427C45.7213 481.464 45.8308 481.525 45.9249 481.606C46.019 481.686 46.0961 481.785 46.1514 481.896C46.2066 482.007 46.2388 482.128 46.2465 482.252C46.2541 482.375 46.2369 482.499 46.1957 482.616C45.7516 484.028 45.3926 485.466 45.121 486.921C44.3117 491.179 45.069 495.128 45.8472 497.691C45.9108 497.908 45.8935 498.139 45.7984 498.344C45.7033 498.548 45.537 498.71 45.3307 498.8Z" fill="white"/>
</g>
<g style="mix-blend-mode:multiply" opacity="0.15">
<path d="M94.1862 472.543C101.087 487.506 95.0472 503.575 83.5048 510.907C76.2432 515.522 66.4748 517.6 60.222 518.506C66.5967 520.39 73.4092 520.163 79.6449 517.861C85.8805 515.559 91.2056 511.304 94.8271 505.73C98.4486 500.156 100.173 493.562 99.7428 486.928C99.3128 480.295 96.7516 473.979 92.4407 468.919C93.0049 470.05 93.5897 471.252 94.1862 472.543Z" fill="black"/>
</g>
</g>
<path d="M67.8426 485.598C68.3306 486.731 69.5958 488.218 71.1495 487.724C72.7031 487.229 73.253 485.847 72.7649 484.714L67.8426 485.598Z" fill="#161C2D"/>
<path d="M90.8241 475.7C91.3121 476.833 91.5205 478.776 90.0967 479.564C88.6728 480.351 87.285 479.804 86.7969 478.67L90.8241 475.7Z" fill="#161C2D"/>
<path d="M87.8499 483.564C87.7529 483.606 87.6482 483.628 87.5423 483.628C87.4365 483.628 87.3319 483.606 87.235 483.563C85.3931 482.881 83.362 482.916 81.5451 483.663C80.6985 484.009 79.9354 484.531 79.307 485.196C78.6786 485.86 78.1995 486.651 77.9016 487.516C77.8437 487.708 77.7131 487.87 77.538 487.967C77.3628 488.065 77.1566 488.09 76.963 488.038C76.7695 487.986 76.604 487.861 76.5013 487.689C76.3985 487.516 76.3667 487.311 76.4127 487.116C76.7713 486.026 77.3608 485.027 78.1414 484.187C78.9219 483.346 79.875 482.684 80.9351 482.246C83.1385 481.319 85.6155 481.28 87.847 482.138C87.985 482.197 88.1027 482.296 88.1851 482.422C88.2676 482.547 88.3113 482.694 88.3109 482.845C88.3106 482.995 88.2664 483.142 88.1833 483.267C88.1003 483.393 87.9821 483.491 87.8438 483.55L87.8499 483.564Z" fill="#161C2D"/>
<circle cx="97.5" cy="53.5" r="1.5" fill="white"/>
<circle cx="345.5" cy="231.5" r="1.5" fill="white"/>
<circle cx="49.5" cy="597.5" r="1.5" fill="white"/>
<circle cx="354.5" cy="669.5" r="1.5" fill="white"/>
<circle cx="42.5" cy="317.5" r="1.5" fill="white"/>
<circle cx="19.5" cy="233.5" r="1.5" fill="white"/>
<defs>
<clipPath id="clip0_409_1653">
<rect width="343.124" height="343.124" fill="white" transform="matrix(-0.943695 -0.330817 -0.330817 0.943695 522.315 403.511)"/>
</clipPath>
</defs>
</svg>
