<svg width="24" height="24" viewBox="0 0 24 24" fill="none" xmlns="http://www.w3.org/2000/svg">
<circle cx="12" cy="12" r="12" fill="#8AA4BC"/>
<circle cx="8" cy="11" r="1" fill="#161C2D"/>
<circle cx="16" cy="11" r="1" fill="#161C2D"/>
<path d="M14.8419 14.4743C15.1039 14.5617 15.387 14.4201 15.4743 14.1581C15.5617 13.8961 15.4201 13.613 15.1581 13.5257L14.8419 14.4743ZM8.84189 13.5257C8.57991 13.613 8.43833 13.8961 8.52566 14.1581C8.61298 14.4201 8.89614 14.5617 9.15811 14.4743L8.84189 13.5257ZM15.1581 13.5257L14.6879 13.3689L14.3717 14.3176L14.8419 14.4743L15.1581 13.5257ZM9.31206 13.3689L8.84189 13.5257L9.15811 14.4743L9.62829 14.3176L9.31206 13.3689ZM14.6879 13.3689C12.9432 12.7873 11.0568 12.7873 9.31206 13.3689L9.62829 14.3176C11.1678 13.8044 12.8322 13.8044 14.3717 14.3176L14.6879 13.3689Z" fill="#161C2D"/>
</svg>
