<svg width="12" height="10" viewBox="0 0 12 10" fill="none" xmlns="http://www.w3.org/2000/svg">
<mask id="path-1-inside-1_14_192" fill="white">
<path d="M0.971925 1.04302C-0.323975 2.43372 -0.323975 4.68848 0.971925 6.07918L3.65356 8.95698C3.81555 9.13082 3.99012 9.28292 4.17412 9.4133C5.46215 10.3259 7.21252 10.1738 8.34643 8.95698L11.0281 6.07918C12.324 4.68848 12.324 2.43372 11.0281 1.04302C9.73218 -0.347674 7.63111 -0.347674 6.33521 1.04302L6 1.40275L5.66479 1.04302C4.36889 -0.347674 2.26782 -0.347674 0.971925 1.04302Z"/>
</mask>
<path d="M0.971925 1.04302C-0.323975 2.43372 -0.323975 4.68848 0.971925 6.07918L3.65356 8.95698C3.81555 9.13082 3.99012 9.28292 4.17412 9.4133C5.46215 10.3259 7.21252 10.1738 8.34643 8.95698L11.0281 6.07918C12.324 4.68848 12.324 2.43372 11.0281 1.04302C9.73218 -0.347674 7.63111 -0.347674 6.33521 1.04302L6 1.40275L5.66479 1.04302C4.36889 -0.347674 2.26782 -0.347674 0.971925 1.04302Z" fill="white"/>
<path d="M0.971925 6.07918L1.70353 5.39744L1.70353 5.39744L0.971925 6.07918ZM0.971925 1.04302L0.240323 0.361289L0.240323 0.361289L0.971925 1.04302ZM3.65356 8.95698L2.92196 9.63871L3.65356 8.95698ZM4.17412 9.4133L4.75226 8.59736L4.75226 8.59736L4.17412 9.4133ZM8.34643 8.95698L7.61483 8.27524L7.61483 8.27525L8.34643 8.95698ZM11.0281 6.07918L11.7597 6.76091L11.7597 6.76091L11.0281 6.07918ZM11.0281 1.04302L10.2965 1.72475V1.72475L11.0281 1.04302ZM6.33521 1.04302L7.06681 1.72475L6.33521 1.04302ZM6 1.40275L5.2684 2.08448L6 2.8696L6.7316 2.08448L6 1.40275ZM5.66479 1.04302L6.39639 0.361289V0.361289L5.66479 1.04302ZM1.70353 5.39744C0.765491 4.39079 0.765491 2.73141 1.70353 1.72475L0.240323 0.361289C-1.41344 2.13603 -1.41344 4.98617 0.240323 6.76091L1.70353 5.39744ZM4.38517 8.27525L1.70353 5.39744L0.240323 6.76091L2.92196 9.63871L4.38517 8.27525ZM4.75226 8.59736C4.62432 8.50671 4.5011 8.39966 4.38517 8.27525L2.92196 9.63871C3.13 9.86197 3.35592 10.0591 3.59598 10.2292L4.75226 8.59736ZM7.61483 8.27525C6.822 9.12607 5.63132 9.22022 4.75226 8.59736L3.59598 10.2292C5.29298 11.4317 7.60304 11.2216 9.07803 9.63871L7.61483 8.27525ZM10.2965 5.39744L7.61483 8.27524L9.07803 9.63871L11.7597 6.76091L10.2965 5.39744ZM10.2965 1.72475C11.2345 2.73141 11.2345 4.39079 10.2965 5.39744L11.7597 6.76091C13.4134 4.98617 13.4134 2.13603 11.7597 0.361289L10.2965 1.72475ZM7.06681 1.72475C7.96728 0.758416 9.396 0.758416 10.2965 1.72475L11.7597 0.36129C10.0683 -1.45376 7.29494 -1.45376 5.60361 0.36129L7.06681 1.72475ZM6.7316 2.08448L7.06681 1.72475L5.60361 0.36129L5.2684 0.721017L6.7316 2.08448ZM4.93319 1.72475L5.2684 2.08448L6.7316 0.721017L6.39639 0.361289L4.93319 1.72475ZM1.70353 1.72475C2.604 0.758415 4.03272 0.758415 4.93319 1.72475L6.39639 0.361289C4.70506 -1.45376 1.93165 -1.45376 0.240323 0.361289L1.70353 1.72475Z" fill="white" mask="url(#path-1-inside-1_14_192)"/>
</svg>
