<svg width="16" height="16" viewBox="0 0 16 16" fill="none" xmlns="http://www.w3.org/2000/svg">
<mask id="path-1-inside-1_222_259" fill="white">
<path d="M2.97192 4.04302C1.67603 5.43372 1.67603 7.68848 2.97192 9.07918L5.65356 11.957C5.81555 12.1308 5.99012 12.2829 6.17412 12.4133C7.46215 13.3259 9.21252 13.1738 10.3464 11.957L13.0281 9.07918C14.324 7.68848 14.324 5.43372 13.0281 4.04302C11.7322 2.65233 9.63111 2.65233 8.33521 4.04302L8 4.40275L7.66479 4.04302C6.36889 2.65233 4.26782 2.65233 2.97192 4.04302Z"/>
</mask>
<path d="M2.97192 9.07918L3.70353 8.39744L3.70353 8.39744L2.97192 9.07918ZM2.97192 4.04302L2.24032 3.36129L2.24032 3.36129L2.97192 4.04302ZM5.65356 11.957L4.92196 12.6387L5.65356 11.957ZM6.17412 12.4133L6.75226 11.5974L6.75226 11.5974L6.17412 12.4133ZM10.3464 11.957L9.61483 11.2752L9.61483 11.2752L10.3464 11.957ZM13.0281 9.07918L13.7597 9.76091L13.7597 9.76091L13.0281 9.07918ZM13.0281 4.04302L12.2965 4.72475V4.72475L13.0281 4.04302ZM8.33521 4.04302L9.06681 4.72475L8.33521 4.04302ZM8 4.40275L7.2684 5.08448L8 5.8696L8.7316 5.08448L8 4.40275ZM7.66479 4.04302L8.39639 3.36129V3.36129L7.66479 4.04302ZM3.70353 8.39744C2.76549 7.39079 2.76549 5.73141 3.70353 4.72475L2.24032 3.36129C0.586559 5.13603 0.586559 7.98617 2.24032 9.76091L3.70353 8.39744ZM6.38517 11.2752L3.70353 8.39744L2.24032 9.76091L4.92196 12.6387L6.38517 11.2752ZM6.75226 11.5974C6.62432 11.5067 6.5011 11.3997 6.38517 11.2752L4.92196 12.6387C5.13 12.862 5.35592 13.0591 5.59598 13.2292L6.75226 11.5974ZM9.61483 11.2752C8.822 12.1261 7.63132 12.2202 6.75226 11.5974L5.59598 13.2292C7.29298 14.4317 9.60304 14.2216 11.078 12.6387L9.61483 11.2752ZM12.2965 8.39744L9.61483 11.2752L11.078 12.6387L13.7597 9.76091L12.2965 8.39744ZM12.2965 4.72475C13.2345 5.73141 13.2345 7.39079 12.2965 8.39744L13.7597 9.76091C15.4134 7.98617 15.4134 5.13603 13.7597 3.36129L12.2965 4.72475ZM9.06681 4.72475C9.96728 3.75842 11.396 3.75842 12.2965 4.72475L13.7597 3.36129C12.0683 1.54624 9.29494 1.54624 7.60361 3.36129L9.06681 4.72475ZM8.7316 5.08448L9.06681 4.72475L7.60361 3.36129L7.2684 3.72102L8.7316 5.08448ZM6.93319 4.72475L7.2684 5.08448L8.7316 3.72102L8.39639 3.36129L6.93319 4.72475ZM3.70353 4.72475C4.604 3.75842 6.03272 3.75842 6.93319 4.72475L8.39639 3.36129C6.70506 1.54624 3.93165 1.54624 2.24032 3.36129L3.70353 4.72475Z" fill="white" mask="url(#path-1-inside-1_222_259)"/>
</svg>
