<svg width="390" height="246" viewBox="0 0 390 246" fill="none" xmlns="http://www.w3.org/2000/svg">
<ellipse rx="36.1111" ry="35.8333" transform="matrix(-1 0 0 1 189.353 64.5)" fill="#E0AB84"/>
<mask id="mask0_410_2626" style="mask-type:alpha" maskUnits="userSpaceOnUse" x="153" y="28" width="73" height="73">
<ellipse rx="36.1111" ry="35.8333" transform="matrix(-1 0 0 1 189.353 64.5)" fill="white"/>
</mask>
<g mask="url(#mask0_410_2626)">
<g style="mix-blend-mode:soft-light" opacity="0.5">
<path d="M208.864 44.7171C209.081 44.7143 209.291 44.6471 209.469 44.5243C209.647 44.4015 209.783 44.2286 209.861 44.0281C209.939 43.8275 209.954 43.6086 209.905 43.3992C209.856 43.1899 209.745 42.9998 209.586 42.8537C208.762 42.0929 207.892 41.3809 206.983 40.7215C206.868 40.632 206.736 40.5665 206.595 40.5287C206.454 40.491 206.307 40.482 206.163 40.5021C206.018 40.5223 205.879 40.5712 205.754 40.646C205.629 40.7207 205.52 40.8196 205.435 40.9371C205.349 41.0545 205.288 41.1881 205.256 41.3294C205.224 41.4707 205.221 41.6169 205.247 41.7594C205.274 41.902 205.329 42.0378 205.409 42.1587C205.489 42.2796 205.594 42.3832 205.715 42.4632C206.553 43.0717 207.353 43.7287 208.113 44.4305C208.317 44.6182 208.586 44.7208 208.864 44.7171Z" fill="white"/>
</g>
<g style="mix-blend-mode:soft-light" opacity="0.5">
<path d="M219.314 64.146H219.444C219.586 64.1304 219.723 64.0872 219.848 64.019C219.973 63.9507 220.083 63.8586 220.172 63.7481C220.26 63.6376 220.326 63.511 220.366 63.3751C220.405 63.2392 220.418 63.0971 220.401 62.9566C220.04 59.6241 218.921 54.7148 215.833 50.1675C214.818 48.6702 213.713 47.2343 212.525 45.8675C212.434 45.7559 212.32 45.6636 212.192 45.5963C212.064 45.529 211.923 45.488 211.779 45.4756C211.634 45.4632 211.489 45.4797 211.351 45.5242C211.213 45.5687 211.085 45.6402 210.976 45.7345C210.866 45.8289 210.777 45.944 210.713 46.0733C210.649 46.2025 210.612 46.3435 210.604 46.4872C210.596 46.631 210.617 46.7748 210.666 46.9103C210.715 47.0458 210.791 47.1699 210.889 47.2756C212.021 48.5782 213.073 49.9473 214.039 51.3751C216.881 55.5461 217.895 60.1077 218.245 63.2001C218.277 63.4599 218.403 63.6993 218.6 63.8734C218.797 64.0476 219.051 64.1444 219.314 64.146Z" fill="white"/>
</g>
<g style="mix-blend-mode:multiply" opacity="0.15">
<path d="M154.625 58.5809C154.134 77.7159 168.069 92.0851 183.875 94.6042C193.82 96.1916 205.286 93.92 212.428 92.0136C206.446 96.9523 199.017 99.8413 191.246 100.25C183.475 100.659 175.779 98.5665 169.304 94.2837C162.829 90.0008 157.921 83.7572 155.312 76.4825C152.703 69.2077 152.531 61.2912 154.824 53.912C154.741 55.3776 154.668 56.9289 154.625 58.5809Z" fill="black"/>
</g>
</g>
<path d="M160.475 61.845C160.475 62.3915 160.694 62.9154 161.083 63.3018C161.472 63.6882 162 63.9054 162.551 63.9054C163.102 63.9054 163.63 63.6882 164.02 63.3018C164.409 62.9154 164.628 62.3915 164.628 61.845C164.628 60.7055 163.699 60.7984 162.551 60.7984C161.403 60.7984 160.475 60.7055 160.475 61.845Z" fill="#161C2D"/>
<path d="M183.879 61.845C183.879 62.3915 184.097 62.9154 184.486 63.3018C184.876 63.6882 185.404 63.9054 185.955 63.9054C186.506 63.9054 187.034 63.6882 187.423 63.3018C187.812 62.9154 188.031 62.3915 188.031 61.845C188.031 60.7055 187.1 60.7984 185.955 60.7984C184.81 60.7984 183.879 60.7055 183.879 61.845Z" fill="#161C2D"/>
<path d="M173.366 69.936C177.938 69.936 180.354 67.238 180.455 67.1198C180.533 67.0313 180.592 66.9283 180.63 66.8171C180.668 66.7058 180.683 66.5884 180.675 66.4713C180.667 66.3542 180.636 66.2395 180.583 66.1343C180.531 66.0292 180.458 65.9354 180.368 65.8582C180.279 65.7811 180.176 65.7221 180.063 65.6847C179.951 65.6472 179.833 65.6322 179.715 65.6402C179.597 65.6482 179.481 65.679 179.375 65.7312C179.269 65.7834 179.175 65.8559 179.097 65.9443C179.007 66.0411 177.071 68.1444 173.366 68.1444C171.097 68.1394 168.903 67.34 167.17 65.8869C166.997 65.722 166.766 65.632 166.527 65.6364C166.287 65.6407 166.06 65.7393 165.893 65.9104C165.727 66.0814 165.636 66.3108 165.641 66.5483C165.645 66.7859 165.744 67.0119 165.917 67.1768C167.981 68.9621 170.628 69.9427 173.366 69.936Z" fill="#161C2D"/>
<ellipse rx="36.1111" ry="35.8333" transform="matrix(-1 0 0 1 259.353 64.5)" fill="#DB6E6E"/>
<mask id="mask1_410_2626" style="mask-type:alpha" maskUnits="userSpaceOnUse" x="223" y="28" width="73" height="73">
<ellipse rx="36.1111" ry="35.8333" transform="matrix(-1 0 0 1 259.353 64.5)" fill="white"/>
</mask>
<g mask="url(#mask1_410_2626)">
<g style="mix-blend-mode:soft-light" opacity="0.5">
<path d="M278.864 44.7171C279.081 44.7143 279.291 44.6471 279.469 44.5243C279.647 44.4015 279.783 44.2286 279.861 44.0281C279.939 43.8275 279.954 43.6086 279.905 43.3992C279.856 43.1899 279.745 42.9998 279.586 42.8537C278.762 42.0929 277.892 41.3809 276.983 40.7215C276.868 40.632 276.736 40.5665 276.595 40.5287C276.454 40.491 276.307 40.482 276.163 40.5021C276.018 40.5223 275.879 40.5712 275.754 40.646C275.629 40.7207 275.52 40.8196 275.435 40.9371C275.349 41.0545 275.288 41.1881 275.256 41.3294C275.224 41.4707 275.221 41.6169 275.247 41.7594C275.274 41.902 275.329 42.0378 275.409 42.1587C275.489 42.2796 275.594 42.3832 275.715 42.4632C276.553 43.0717 277.353 43.7287 278.113 44.4305C278.317 44.6182 278.586 44.7208 278.864 44.7171Z" fill="white"/>
</g>
<g style="mix-blend-mode:soft-light" opacity="0.5">
<path d="M289.314 64.146H289.444C289.586 64.1304 289.723 64.0872 289.848 64.019C289.973 63.9507 290.083 63.8586 290.172 63.7481C290.26 63.6376 290.326 63.511 290.366 63.3751C290.405 63.2392 290.418 63.0971 290.401 62.9566C290.04 59.6241 288.921 54.7148 285.833 50.1675C284.818 48.6702 283.713 47.2343 282.525 45.8675C282.434 45.7559 282.32 45.6636 282.192 45.5963C282.064 45.529 281.923 45.488 281.779 45.4756C281.634 45.4632 281.489 45.4797 281.351 45.5242C281.213 45.5687 281.085 45.6402 280.976 45.7345C280.866 45.8289 280.777 45.944 280.713 46.0733C280.649 46.2025 280.612 46.3435 280.604 46.4872C280.596 46.631 280.617 46.7748 280.666 46.9103C280.715 47.0458 280.791 47.1699 280.889 47.2756C282.021 48.5782 283.073 49.9473 284.039 51.3751C286.881 55.5461 287.895 60.1077 288.245 63.2001C288.277 63.4599 288.403 63.6993 288.6 63.8734C288.797 64.0476 289.051 64.1444 289.314 64.146Z" fill="white"/>
</g>
<g style="mix-blend-mode:multiply" opacity="0.15">
<path d="M224.625 58.5809C224.134 77.7159 238.069 92.0851 253.875 94.6042C263.82 96.1916 275.286 93.92 282.428 92.0136C276.446 96.9523 269.017 99.8413 261.246 100.25C253.475 100.659 245.779 98.5665 239.304 94.2837C232.829 90.0008 227.921 83.7572 225.312 76.4825C222.703 69.2077 222.531 61.2912 224.824 53.912C224.741 55.3776 224.668 56.9289 224.625 58.5809Z" fill="black"/>
</g>
</g>
<path d="M232.555 63.9016C231.408 63.9016 230.478 62.9791 230.478 61.8412C230.478 60.7033 231.408 59.7808 232.555 59.7808C233.701 59.7808 234.631 60.7033 234.631 61.8412C234.631 62.9791 233.701 63.9016 232.555 63.9016Z" fill="#161C2D"/>
<path d="M255.955 63.9016C254.808 63.9016 253.878 62.9791 253.878 61.8412C253.878 60.7033 254.808 59.7808 255.955 59.7808C257.101 59.7808 258.031 60.7033 258.031 61.8412C258.031 62.9791 257.101 63.9016 255.955 63.9016Z" fill="#161C2D"/>
<path d="M243.16 72.405C245.659 72.405 247.617 69.8248 247.617 66.5317C247.617 63.2386 245.659 60.6623 243.16 60.6623C240.662 60.6623 238.704 63.2422 238.704 66.5317C238.704 69.8212 240.662 72.405 243.16 72.405ZM243.16 62.4539C244.605 62.4539 245.811 64.3208 245.811 66.5317C245.811 68.7426 244.598 70.6134 243.16 70.6134C241.723 70.6134 240.51 68.7462 240.51 66.5317C240.51 64.3172 241.723 62.4539 243.16 62.4539Z" fill="#161C2D"/>
<ellipse rx="36.1111" ry="35.8333" transform="matrix(-1 0 0 1 325.353 64.5)" fill="#8AA4BC"/>
<mask id="mask2_410_2626" style="mask-type:alpha" maskUnits="userSpaceOnUse" x="289" y="28" width="73" height="73">
<ellipse rx="36.1111" ry="35.8333" transform="matrix(-1 0 0 1 325.353 64.5)" fill="white"/>
</mask>
<g mask="url(#mask2_410_2626)">
<g style="mix-blend-mode:soft-light" opacity="0.5">
<path d="M344.864 44.7171C345.081 44.7143 345.291 44.6471 345.469 44.5243C345.647 44.4015 345.783 44.2286 345.861 44.0281C345.939 43.8275 345.954 43.6086 345.905 43.3992C345.856 43.1899 345.745 42.9998 345.586 42.8537C344.762 42.0929 343.892 41.3809 342.983 40.7215C342.868 40.632 342.736 40.5665 342.595 40.5287C342.454 40.491 342.307 40.482 342.163 40.5021C342.018 40.5223 341.879 40.5712 341.754 40.646C341.629 40.7207 341.52 40.8196 341.435 40.9371C341.349 41.0545 341.288 41.1881 341.256 41.3294C341.224 41.4707 341.221 41.6169 341.247 41.7594C341.274 41.902 341.329 42.0378 341.409 42.1587C341.489 42.2796 341.594 42.3832 341.715 42.4632C342.553 43.0717 343.353 43.7287 344.113 44.4305C344.317 44.6182 344.586 44.7208 344.864 44.7171Z" fill="white"/>
</g>
<g style="mix-blend-mode:soft-light" opacity="0.5">
<path d="M355.314 64.146H355.444C355.586 64.1304 355.723 64.0872 355.848 64.019C355.973 63.9507 356.083 63.8586 356.172 63.7481C356.26 63.6376 356.326 63.511 356.366 63.3751C356.405 63.2392 356.418 63.0971 356.401 62.9566C356.04 59.6241 354.921 54.7148 351.833 50.1675C350.818 48.6702 349.713 47.2343 348.525 45.8675C348.434 45.7559 348.32 45.6636 348.192 45.5963C348.064 45.529 347.923 45.488 347.779 45.4756C347.634 45.4632 347.489 45.4797 347.351 45.5242C347.213 45.5687 347.085 45.6402 346.976 45.7345C346.866 45.8289 346.777 45.944 346.713 46.0733C346.649 46.2025 346.612 46.3435 346.604 46.4872C346.596 46.631 346.617 46.7748 346.666 46.9103C346.715 47.0458 346.791 47.1699 346.89 47.2756C348.021 48.5782 349.073 49.9473 350.039 51.3751C352.881 55.5461 353.895 60.1077 354.245 63.2001C354.277 63.4599 354.403 63.6993 354.6 63.8734C354.797 64.0476 355.051 64.1444 355.314 64.146Z" fill="white"/>
</g>
<g style="mix-blend-mode:multiply" opacity="0.15">
<path d="M290.625 58.5809C290.134 77.7159 304.069 92.0851 319.875 94.6042C329.82 96.1916 341.286 93.92 348.428 92.0136C342.446 96.9523 335.017 99.8413 327.246 100.25C319.475 100.659 311.779 98.5665 305.304 94.2837C298.829 90.0008 293.921 83.7572 291.312 76.4825C288.703 69.2077 288.531 61.2912 290.824 53.912C290.741 55.3776 290.668 56.9289 290.625 58.5809Z" fill="black"/>
</g>
</g>
<path d="M321.864 61.0135L321.955 61.0996L322.041 61.0135C322.162 60.8911 322.306 60.7935 322.464 60.7266C322.623 60.6597 322.793 60.6248 322.966 60.6237C323.138 60.6226 323.309 60.6554 323.469 60.7203C323.628 60.7852 323.773 60.8808 323.895 61.0016C324.017 61.1225 324.114 61.2662 324.18 61.4244C324.245 61.5825 324.279 61.7519 324.278 61.923C324.277 62.0941 324.242 62.2634 324.175 62.421C324.108 62.5785 324.01 62.7211 323.887 62.8409L322.875 63.8442C322.755 63.9644 322.611 64.06 322.453 64.1252C322.295 64.1903 322.126 64.2238 321.955 64.2238C321.784 64.2238 321.614 64.1903 321.456 64.1252C321.298 64.06 321.155 63.9644 321.034 63.8442L320.023 62.8409C319.797 62.595 319.675 62.2722 319.682 61.9395C319.69 61.6067 319.827 61.2895 320.064 61.0541C320.301 60.8188 320.621 60.6834 320.956 60.6759C321.291 60.6683 321.617 60.7891 321.864 61.0135Z" fill="#161C2D"/>
<path d="M298.464 61.0135L298.551 61.0996L298.642 61.0135C298.76 60.8844 298.904 60.7804 299.064 60.708C299.225 60.6356 299.398 60.5962 299.575 60.5922C299.751 60.5882 299.926 60.6198 300.089 60.6849C300.253 60.75 300.401 60.8472 300.526 60.9708C300.651 61.0944 300.749 61.2417 300.814 61.404C300.88 61.5663 300.912 61.7401 300.908 61.9149C300.904 62.0897 300.864 62.2618 300.791 62.4209C300.718 62.5801 300.613 62.723 300.483 62.8409L299.472 63.8441C299.351 63.9644 299.208 64.06 299.05 64.1251C298.892 64.1902 298.722 64.2238 298.551 64.2238C298.38 64.2238 298.211 64.1902 298.053 64.1251C297.895 64.06 297.751 63.9644 297.63 63.8441L296.619 62.8409C296.496 62.7211 296.398 62.5785 296.331 62.4209C296.264 62.2634 296.229 62.094 296.228 61.923C296.227 61.7519 296.261 61.5825 296.326 61.4243C296.392 61.2662 296.489 61.1224 296.611 61.0016C296.733 60.8807 296.878 60.7851 297.037 60.7203C297.197 60.6554 297.368 60.6226 297.54 60.6237C297.713 60.6248 297.883 60.6596 298.042 60.7265C298.2 60.7935 298.344 60.8911 298.464 61.0135Z" fill="#161C2D"/>
<path d="M309.16 72.405C311.659 72.405 313.617 69.8248 313.617 66.5317C313.617 63.2386 311.659 60.6623 309.16 60.6623C306.662 60.6623 304.704 63.2422 304.704 66.5317C304.704 69.8212 306.662 72.405 309.16 72.405ZM309.16 62.4539C310.605 62.4539 311.811 64.3208 311.811 66.5317C311.811 68.7426 310.598 70.6134 309.16 70.6134C307.723 70.6134 306.51 68.7462 306.51 66.5317C306.51 64.3172 307.723 62.4539 309.16 62.4539Z" fill="#161C2D"/>
<circle r="41.9444" transform="matrix(-1 0 0 1 153.853 112.5)" fill="#8AA4BC"/>
<mask id="mask3_410_2626" style="mask-type:alpha" maskUnits="userSpaceOnUse" x="111" y="70" width="85" height="85">
<circle r="41.9444" transform="matrix(-1 0 0 1 153.853 112.5)" fill="white"/>
</mask>
<g mask="url(#mask3_410_2626)">
<g style="mix-blend-mode:soft-light" opacity="0.5">
<path d="M176.516 89.3433C176.768 89.34 177.012 89.2613 177.219 89.1176C177.425 88.9738 177.584 88.7715 177.674 88.5367C177.764 88.302 177.782 88.0457 177.725 87.8007C177.668 87.5556 177.539 87.3331 177.355 87.1621C176.397 86.2715 175.387 85.4381 174.331 84.6663C174.197 84.5615 174.044 84.4848 173.881 84.4406C173.717 84.3964 173.546 84.3859 173.378 84.4095C173.21 84.433 173.048 84.4903 172.903 84.5778C172.758 84.6654 172.632 84.7811 172.533 84.9186C172.433 85.0561 172.363 85.2124 172.325 85.3778C172.288 85.5432 172.285 85.7144 172.315 85.8812C172.345 86.048 172.409 86.207 172.503 86.3486C172.596 86.4901 172.717 86.6114 172.859 86.7049C173.831 87.4173 174.761 88.1863 175.644 89.0078C175.881 89.2275 176.193 89.3476 176.516 89.3433Z" fill="white"/>
</g>
<g style="mix-blend-mode:soft-light" opacity="0.5">
<path d="M188.654 112.086H188.805C188.97 112.067 189.129 112.017 189.274 111.937C189.419 111.857 189.547 111.749 189.65 111.62C189.753 111.491 189.83 111.342 189.876 111.183C189.921 111.024 189.936 110.858 189.917 110.693C189.498 106.793 188.197 101.046 184.611 95.7232C183.431 93.9706 182.148 92.2898 180.769 90.6899C180.662 90.5592 180.531 90.4512 180.382 90.3724C180.233 90.2936 180.069 90.2456 179.902 90.2311C179.734 90.2166 179.565 90.236 179.404 90.288C179.244 90.3401 179.096 90.4238 178.969 90.5342C178.842 90.6446 178.737 90.7794 178.663 90.9307C178.589 91.082 178.546 91.247 178.537 91.4153C178.527 91.5835 178.552 91.7519 178.609 91.9105C178.666 92.0691 178.754 92.2143 178.869 92.3382C180.183 93.8629 181.404 95.4654 182.526 97.1368C185.827 102.019 187.006 107.359 187.413 110.978C187.449 111.282 187.596 111.563 187.824 111.767C188.053 111.97 188.348 112.084 188.654 112.086Z" fill="white"/>
</g>
<g style="mix-blend-mode:multiply" opacity="0.15">
<path d="M113.515 105.571C112.945 127.97 129.131 144.79 147.49 147.738C159.042 149.596 172.359 146.937 180.656 144.706C173.708 150.487 165.078 153.869 156.052 154.347C147.026 154.826 138.086 152.376 130.565 147.363C123.044 142.35 117.344 135.041 114.313 126.526C111.282 118.011 111.083 108.744 113.746 100.106C113.649 101.822 113.566 103.638 113.515 105.571Z" fill="black"/>
</g>
</g>
<path d="M120.314 109.392C120.314 110.722 121.396 110.73 122.726 110.73C124.055 110.73 125.138 110.73 125.138 109.392C125.138 108.753 124.883 108.139 124.431 107.687C123.979 107.234 123.366 106.98 122.726 106.98C122.086 106.98 121.473 107.234 121.02 107.687C120.568 108.139 120.314 108.753 120.314 109.392Z" fill="#161C2D"/>
<path d="M147.498 109.392C147.498 110.722 148.576 110.73 149.91 110.73C151.244 110.73 152.322 110.73 152.322 109.392C152.322 108.753 152.068 108.139 151.615 107.687C151.163 107.234 150.55 106.98 149.91 106.98C149.27 106.98 148.657 107.234 148.205 107.687C147.752 108.139 147.498 108.753 147.498 109.392Z" fill="#161C2D"/>
<path d="M135.284 118.863C140.594 118.863 143.4 115.705 143.518 115.567C143.608 115.463 143.677 115.342 143.721 115.212C143.765 115.082 143.782 114.945 143.773 114.808C143.764 114.67 143.728 114.536 143.667 114.413C143.606 114.29 143.521 114.18 143.417 114.09C143.314 114 143.193 113.931 143.063 113.887C142.933 113.843 142.795 113.825 142.658 113.835C142.521 113.844 142.387 113.88 142.264 113.941C142.141 114.002 142.031 114.087 141.941 114.191C141.836 114.304 139.587 116.766 135.284 116.766C132.648 116.76 130.099 115.824 128.086 114.123C127.886 113.93 127.618 113.825 127.339 113.83C127.061 113.835 126.797 113.951 126.604 114.151C126.411 114.351 126.305 114.62 126.31 114.898C126.315 115.176 126.431 115.44 126.631 115.633C129.028 117.723 132.103 118.871 135.284 118.863Z" fill="#161C2D"/>
<circle r="41.9444" transform="matrix(-1 0 0 1 228.853 112.5)" fill="#65A395"/>
<mask id="mask4_410_2626" style="mask-type:alpha" maskUnits="userSpaceOnUse" x="186" y="70" width="85" height="85">
<circle r="41.9444" transform="matrix(-1 0 0 1 228.853 112.5)" fill="white"/>
</mask>
<g mask="url(#mask4_410_2626)">
<g style="mix-blend-mode:soft-light" opacity="0.5">
<path d="M251.516 89.3433C251.768 89.34 252.012 89.2613 252.219 89.1176C252.425 88.9738 252.584 88.7715 252.674 88.5367C252.764 88.302 252.782 88.0457 252.725 87.8007C252.668 87.5556 252.539 87.3331 252.355 87.1621C251.397 86.2715 250.387 85.4381 249.331 84.6663C249.197 84.5615 249.044 84.4848 248.881 84.4406C248.717 84.3964 248.546 84.3859 248.378 84.4095C248.21 84.433 248.048 84.4903 247.903 84.5778C247.758 84.6654 247.632 84.7811 247.533 84.9186C247.433 85.0561 247.363 85.2124 247.325 85.3778C247.288 85.5432 247.285 85.7144 247.315 85.8812C247.345 86.048 247.409 86.207 247.503 86.3486C247.596 86.4901 247.717 86.6114 247.859 86.7049C248.831 87.4173 249.761 88.1863 250.644 89.0078C250.881 89.2275 251.193 89.3476 251.516 89.3433Z" fill="white"/>
</g>
<g style="mix-blend-mode:soft-light" opacity="0.5">
<path d="M263.654 112.086H263.805C263.97 112.067 264.129 112.017 264.274 111.937C264.419 111.857 264.547 111.749 264.65 111.62C264.753 111.491 264.83 111.342 264.876 111.183C264.921 111.024 264.936 110.858 264.917 110.693C264.498 106.793 263.197 101.046 259.611 95.7232C258.431 93.9706 257.148 92.2898 255.769 90.6899C255.662 90.5592 255.531 90.4512 255.382 90.3724C255.233 90.2936 255.069 90.2456 254.902 90.2311C254.734 90.2166 254.565 90.236 254.404 90.288C254.244 90.3401 254.096 90.4238 253.969 90.5342C253.842 90.6446 253.737 90.7794 253.663 90.9307C253.589 91.082 253.546 91.247 253.537 91.4153C253.527 91.5835 253.552 91.7519 253.609 91.9105C253.666 92.0691 253.754 92.2143 253.869 92.3382C255.183 93.8629 256.404 95.4654 257.526 97.1368C260.827 102.019 262.006 107.359 262.413 110.978C262.449 111.282 262.596 111.563 262.824 111.767C263.053 111.97 263.348 112.084 263.654 112.086Z" fill="white"/>
</g>
<g style="mix-blend-mode:multiply" opacity="0.15">
<path d="M188.515 105.571C187.945 127.97 204.131 144.79 222.49 147.738C234.042 149.596 247.359 146.937 255.656 144.706C248.708 150.487 240.078 153.869 231.052 154.347C222.026 154.826 213.086 152.376 205.565 147.363C198.044 142.35 192.344 135.041 189.313 126.526C186.282 118.011 186.083 108.744 188.746 100.106C188.649 101.822 188.566 103.638 188.515 105.571Z" fill="black"/>
</g>
</g>
<path d="M197.726 111.8C196.394 111.8 195.314 110.72 195.314 109.388C195.314 108.056 196.394 106.976 197.726 106.976C199.058 106.976 200.138 108.056 200.138 109.388C200.138 110.72 199.058 111.8 197.726 111.8Z" fill="#161C2D"/>
<path d="M224.906 111.8C223.574 111.8 222.494 110.72 222.494 109.388C222.494 108.056 223.574 106.976 224.906 106.976C226.238 106.976 227.318 108.056 227.318 109.388C227.318 110.72 226.238 111.8 224.906 111.8Z" fill="#161C2D"/>
<path d="M210.045 121.753C212.947 121.753 215.221 118.733 215.221 114.878C215.221 111.024 212.947 108.008 210.045 108.008C207.142 108.008 204.869 111.028 204.869 114.878C204.869 118.729 207.142 121.753 210.045 121.753ZM210.045 110.105C211.723 110.105 213.123 112.29 213.123 114.878C213.123 117.466 211.714 119.656 210.045 119.656C208.375 119.656 206.966 117.47 206.966 114.878C206.966 112.286 208.375 110.105 210.045 110.105Z" fill="#161C2D"/>
<circle r="41.9444" transform="matrix(-1 0 0 1 300.853 112.5)" fill="#F3DCF4"/>
<mask id="mask5_410_2626" style="mask-type:alpha" maskUnits="userSpaceOnUse" x="258" y="70" width="85" height="85">
<circle r="41.9444" transform="matrix(-1 0 0 1 300.853 112.5)" fill="white"/>
</mask>
<g mask="url(#mask5_410_2626)">
<g style="mix-blend-mode:soft-light" opacity="0.5">
<path d="M323.516 89.3433C323.768 89.34 324.012 89.2613 324.219 89.1176C324.425 88.9738 324.584 88.7715 324.674 88.5367C324.764 88.302 324.782 88.0457 324.725 87.8007C324.668 87.5556 324.539 87.3331 324.355 87.1621C323.397 86.2715 322.387 85.4381 321.331 84.6663C321.197 84.5615 321.044 84.4848 320.881 84.4406C320.717 84.3964 320.546 84.3859 320.378 84.4095C320.21 84.433 320.048 84.4903 319.903 84.5778C319.758 84.6654 319.632 84.7811 319.533 84.9186C319.433 85.0561 319.363 85.2124 319.325 85.3778C319.288 85.5432 319.285 85.7144 319.315 85.8812C319.345 86.048 319.409 86.207 319.503 86.3486C319.596 86.4901 319.717 86.6114 319.859 86.7049C320.831 87.4173 321.761 88.1863 322.644 89.0078C322.881 89.2275 323.193 89.3476 323.516 89.3433Z" fill="white"/>
</g>
<g style="mix-blend-mode:soft-light" opacity="0.5">
<path d="M335.654 112.086H335.805C335.97 112.067 336.129 112.017 336.274 111.937C336.419 111.857 336.547 111.749 336.65 111.62C336.753 111.491 336.83 111.342 336.876 111.183C336.921 111.024 336.936 110.858 336.917 110.693C336.498 106.793 335.197 101.046 331.611 95.7232C330.431 93.9706 329.148 92.2898 327.769 90.6899C327.662 90.5592 327.531 90.4512 327.382 90.3724C327.233 90.2936 327.069 90.2456 326.902 90.2311C326.734 90.2166 326.565 90.236 326.404 90.288C326.244 90.3401 326.096 90.4238 325.969 90.5342C325.842 90.6446 325.737 90.7794 325.663 90.9307C325.589 91.082 325.546 91.247 325.537 91.4153C325.527 91.5835 325.552 91.7519 325.609 91.9105C325.666 92.0691 325.754 92.2143 325.869 92.3382C327.183 93.8629 328.404 95.4654 329.526 97.1368C332.827 102.019 334.006 107.359 334.413 110.978C334.449 111.282 334.596 111.563 334.824 111.767C335.053 111.97 335.348 112.084 335.654 112.086Z" fill="white"/>
</g>
<g style="mix-blend-mode:multiply" opacity="0.15">
<path d="M260.515 105.571C259.945 127.97 276.131 144.79 294.49 147.738C306.042 149.596 319.359 146.937 327.656 144.706C320.708 150.487 312.078 153.869 303.052 154.347C294.026 154.826 285.086 152.376 277.565 147.363C270.044 142.35 264.344 135.041 261.313 126.526C258.282 118.011 258.083 108.744 260.746 100.106C260.649 101.822 260.566 103.638 260.515 105.571Z" fill="black"/>
</g>
</g>
<path d="M269.726 111.8C268.723 111.8 267.91 110.72 267.91 109.388C267.91 108.056 268.723 106.976 269.726 106.976C270.729 106.976 271.542 108.056 271.542 109.388C271.542 110.72 270.729 111.8 269.726 111.8Z" fill="#161C2D"/>
<path d="M296.906 111.8C295.903 111.8 295.09 110.72 295.09 109.388C295.09 108.056 295.903 106.976 296.906 106.976C297.909 106.976 298.722 108.056 298.722 109.388C298.722 110.72 297.909 111.8 296.906 111.8Z" fill="#161C2D"/>
<path d="M282.276 117.676C287.435 117.676 290.199 115.826 290.312 115.746C290.543 115.59 290.701 115.349 290.753 115.076C290.806 114.802 290.748 114.519 290.591 114.289C290.435 114.059 290.194 113.9 289.92 113.848C289.647 113.795 289.364 113.854 289.133 114.01C289.083 114.044 286.709 115.579 282.276 115.579C277.716 115.579 274.906 113.989 274.877 113.972C274.758 113.902 274.626 113.857 274.489 113.838C274.352 113.819 274.212 113.828 274.079 113.863C273.945 113.898 273.819 113.96 273.709 114.044C273.6 114.128 273.507 114.233 273.438 114.353C273.369 114.472 273.324 114.605 273.306 114.742C273.289 114.879 273.298 115.018 273.334 115.152C273.37 115.285 273.433 115.41 273.518 115.519C273.602 115.628 273.708 115.72 273.828 115.788C273.971 115.864 277.171 117.676 282.276 117.676Z" fill="#161C2D"/>
<path d="M197.797 160.338C197.234 159.983 196.623 159.762 196.001 159.638C192.787 158.997 190.649 162.336 190.335 165.598L190.174 167.266C189.971 169.378 190.856 171.449 192.524 172.761C194.511 174.324 197.305 174.588 199.217 172.935C200.36 171.947 201.386 170.81 201.771 169.718C202.765 166.904 200.778 162.214 197.797 160.338Z" fill="#ECDFDF"/>
<path d="M28.5243 126.821C29.1429 127.06 29.6841 127.418 30.1538 127.843C32.5799 130.041 31.1822 133.762 28.7602 135.973L27.5217 137.103C25.9536 138.534 23.7704 139.066 21.728 138.513C19.2939 137.855 17.4193 135.77 17.603 133.24C17.7127 131.729 18.0112 130.223 18.6553 129.258C20.3143 126.771 25.2488 125.552 28.5243 126.821Z" fill="#ECDFDF"/>
<path d="M107.863 169.483C100.989 168.616 92.1781 170.945 86.6971 172.905C84.6414 173.641 82.4904 174.136 80.312 173.99C73.3906 173.527 64.8934 171.747 62.6479 169.483C60.0268 166.839 50.1974 158.249 48.8868 156.927C47.5763 155.606 45.6104 152.962 43.6445 148.998L43.6443 148.997C41.6783 145.032 35.1257 131.816 33.8151 130.495C32.5045 129.173 20.7093 133.799 19.3987 143.05C18.0881 152.302 30.5387 166.839 33.8152 177.412C37.0916 187.986 46.9209 200.541 50.1974 204.506C52.5789 207.388 51.5344 219.216 50.5044 226.311C50.3127 227.631 50.2401 228.968 50.4274 230.289C51.1927 235.686 53.4376 243.883 58.0609 244.815C64.6138 246.137 100.655 248.119 101.965 239.529C103.276 230.938 98.689 199.88 107.863 202.523C117.037 205.167 141.283 198.558 153.733 197.237C166.184 195.915 196.327 181.377 196.983 177.412C197.638 173.448 196.327 166.839 195.017 164.857C193.706 162.875 192.396 158.249 189.119 158.249C185.843 158.249 156.864 174.108 147.035 174.108C137.205 174.108 118.348 170.804 107.863 169.483Z" fill="#275EFB"/>
<path d="M99.7412 169.663C105.401 166.971 108.96 153.804 108.103 147.298C108.103 146.401 107.202 145.145 103.6 147.298C99.9985 149.452 91.3798 165.244 87.5206 172.871C90.5222 173.096 94.0811 172.355 99.7412 169.663Z" fill="#ECDFDF"/>
<path d="M48.2938 154.796C46.7165 135.847 57.2756 124.968 62.7523 121.898C66.4765 118.389 76.8166 111.502 88.3834 112.029C102.842 112.686 103.499 121.898 111.386 132.425C119.272 142.953 109.414 144.268 103.499 154.796C97.5843 165.323 87.7262 175.193 79.1825 177.166C72.3476 178.745 65.3812 172.999 62.7523 169.929C56.1802 179.798 62.7523 192.957 55.5231 217.96C48.2939 242.962 36.4641 247.568 31.2064 245.594C25.9488 243.62 19.3767 206.117 25.2916 192.957C31.2064 179.798 50.2654 178.482 48.2938 154.796Z" fill="#2A2F42"/>
</svg>
