<svg xmlns="http://www.w3.org/2000/svg" xmlns:xlink="http://www.w3.org/1999/xlink" viewBox="0 0 360 360"><defs><style>.cls-1,.cls-5{fill:none;}.cls-2{fill:#161c2d;}.cls-3{fill:#db6e6e;}.cls-4{clip-path:url(#clip-path);}.cls-5{stroke:#fff;stroke-linecap:round;stroke-miterlimit:10;stroke-width:10px;}.cls-6{fill:#fff;mix-blend-mode:soft-light;opacity:0.5;}.cls-7{mix-blend-mode:multiply;opacity:0.15;}</style><clipPath id="clip-path"><circle class="cls-1" cx="180" cy="180" r="100"/></clipPath><symbol id="background_no_star" data-name="background/no_star" viewBox="0 0 360 360"><rect class="cls-2" width="360" height="360"/></symbol><symbol id="planet_body_red" data-name="planet_body/red" viewBox="0 0 360 360"><rect class="cls-1" width="360" height="360"/><circle class="cls-3" cx="180" cy="180" r="100"/></symbol><symbol id="planet_shade_default" data-name="planet_shade/default" viewBox="0 0 360 360"><rect class="cls-1" width="360" height="360"/><g class="cls-4"><path class="cls-5" d="M131.61,109.18"/><path class="cls-6" d="M125,118.91a3,3,0,0,1-2-5.2,78,78,0,0,1,7.2-5.95,3,3,0,1,1,3.52,4.86,73.45,73.45,0,0,0-6.65,5.49A3,3,0,0,1,125,118.91Z"/><path class="cls-5" d="M124.68,114.89"/><path class="cls-5" d="M116.83,123.05"/><path class="cls-6" d="M96,173.13a1.94,1.94,0,0,1-.34,0,3,3,0,0,1-2.64-3.32c1-9.29,4.09-23,12.64-35.69a129.58,129.58,0,0,1,9.16-12,3,3,0,0,1,4.54,3.92,122.33,122.33,0,0,0-8.73,11.44C102.8,149.1,100,161.84,99,170.47A3,3,0,0,1,96,173.13Z"/><path class="cls-7" d="M276.17,163.59c1.36,53.41-37.23,93.51-81,100.54-27.54,4.43-59.29-1.92-79.07-7.24A100,100,0,0,0,275.59,150.56C275.85,154.66,276.05,159,276.17,163.59Z"/></g></symbol><symbol id="eyes_evil" data-name="eyes/evil" viewBox="0 0 360 360"><rect class="cls-1" width="360" height="360"/><path class="cls-2" d="M181,168.57c0,4,1.87,10,7.12,10.57s8.68-2.89,8.68-6.89Z"/><path class="cls-2" d="M262.11,168.57c0,4-1.87,10-7.12,10.57s-8.67-2.89-8.67-6.89Z"/></symbol><symbol id="mouth_very_bad" data-name="mouth/very_bad" viewBox="0 0 360 360"><rect class="cls-1" width="360" height="360"/><path class="cls-2" d="M243.17,188.17a2.48,2.48,0,0,1-1.83-.79,25.31,25.31,0,0,0-17.07-6.95,20.79,20.79,0,0,0-15.79,6.8,2.5,2.5,0,0,1-3.92-3.1,25.81,25.81,0,0,1,19.71-8.7A30,30,0,0,1,245,184a2.49,2.49,0,0,1-1.82,4.2Z"/></symbol></defs><g id="Layer_2" data-name="Layer 2"><g id="Layer_1-2" data-name="Layer 1"><use width="360" height="360" xlink:href="#background_no_star"/><use width="360" height="360" xlink:href="#planet_body_red"/><use width="360" height="360" xlink:href="#planet_shade_default"/><use width="360" height="360" xlink:href="#eyes_evil"/><use width="360" height="360" xlink:href="#mouth_very_bad"/></g></g></svg>