<svg xmlns="http://www.w3.org/2000/svg" viewBox="0 0 196.67 196.67"><defs><style>.cls-1{fill:#4b86bc;}.cls-2{fill:#111;}.cls-3{fill:#c9ad93;}.cls-4{fill:#ffb103;}.cls-5{fill:none;stroke:#000;stroke-linecap:round;stroke-miterlimit:10;}.cls-6{fill:red;opacity:0.04;}</style></defs><g id="Layer_2" data-name="Layer 2"><g id="Layer_1-2" data-name="Layer 1"><rect class="cls-1" width="196.67" height="196.67" rx="8"/><path class="cls-2" d="M91.1,143.61h15.6a34.09,34.09,0,0,1,34.09,34.09v19a0,0,0,0,1,0,0H57a0,0,0,0,1,0,0v-19A34.09,34.09,0,0,1,91.1,143.61Z"/><path class="cls-3" d="M54.1,129.05s9.18,13.69,22.35,19.17,41.63,5.46,55.65.9,20.44-12.21,20.44-26.3-10.85-17-10.85-26.56h0A11.7,11.7,0,0,0,130,84.56H63.62a11.7,11.7,0,0,0-11.71,11.7Z"/><path class="cls-4" d="M55.88,119.52s5.26-19,8.7-15.34h0s.72-3.38,4.87.77c0,0,7.09-18.23,12.91-18.23,0,0,8.73-4,8.73,5.5,0,0,9.6-1.12,11.41-6.83,0,0,10.16-.61,10.16,5.33,0,0,3.57-5.33,9.48-5.33,0,0,9.86-.64,9.86,7.83,0,0,2.23,1.58,4.8-5.63,0,0,3.43,4.87,2.16,8.67,0,0,10.1-1.26,10.1-13.87s0-42.14-33.33-42.14c-24.82,0-30.64,7.81-30.64,7.81s-16.43-4.48-31,4.33-18.84,16-18.84,35.2,16.48,47.33,16.48,47.33h4.11Z"/><path class="cls-3" d="M56.06,138a14.94,14.94,0,0,0,8.52-2.7V101.59c-2.11-1-6.09-3.83-8.52-3.83-9.76,0-17.4,8.49-17.4,19.61S46.3,138,56.06,138Z"/><ellipse cx="98.9" cy="119.89" rx="3.11" ry="4.67"/><line class="cls-5" x1="89.91" y1="108.78" x2="108.89" y2="110.94"/><ellipse cx="136.8" cy="119.89" rx="3.11" ry="4.67"/><line class="cls-5" x1="146.79" y1="108.78" x2="127.82" y2="110.94"/><path class="cls-5" d="M108.81,134.92a17.72,17.72,0,0,1,21.33,0"/><ellipse class="cls-6" cx="85.09" cy="126.11" rx="8.64" ry="5.24"/><ellipse class="cls-6" cx="145.44" cy="126.11" rx="8.64" ry="5.24"/></g></g></svg>