<svg xmlns="http://www.w3.org/2000/svg" viewBox="0 0 196.67 196.85"><defs><style>.cls-1{fill:#d8be93;}.cls-2{fill:#d37e53;}.cls-3{fill:#111;}.cls-4{fill:#fff3f3;}.cls-5,.cls-6{fill:none;stroke-linecap:round;stroke-miterlimit:10;}.cls-5{stroke:#d37e53;}.cls-6{stroke:#000;}.cls-7{fill:red;opacity:0.04;}</style></defs><g id="Layer_2" data-name="Layer 2"><g id="Layer_1-2" data-name="Layer 1"><rect class="cls-1" width="196.67" height="196.67" rx="8"/><path class="cls-2" d="M75.3,87.59a16.46,16.46,0,0,0-4,10.74c0,6.62,2,16.84,2,24s4.87,17.56,4.87,23.11,1.8,7.06,1.8,7.06v44.22H51.62s-3-8.81-3-25.48,4.45-22,4.45-30.91S44,119.89,44,109.86V89.17C44,79.61,56.85,55,67.52,55s11.33,1.33,11.33,1.33,6.89-7.56,22.23-7.56,35.67,2.45,38.84,10,7.82,12.89,7.82,21.56-3.33,8.67-3.33,14.78,5.78,4.11,5.78,10.11v7.49s-3.4,24.51-3.4,33.4,5.75,11.27,5.75,24.08-4.8,12.36-4.8,20.36,4,6.17,4,6.17l-29.11.18V89.39Z"/><path class="cls-3" d="M91.1,143.61h15.6a34.09,34.09,0,0,1,34.09,34.09v19a0,0,0,0,1,0,0H57a0,0,0,0,1,0,0v-19A34.09,34.09,0,0,1,91.1,143.61Z"/><path class="cls-4" d="M53.89,129.05s12,13.69,25.18,19.17,33.13,5.46,47.15.9,26.1-12.21,26.1-26.3-10.85-17-10.85-26.56h0a11.7,11.7,0,0,0-11.7-11.7H63.41A11.7,11.7,0,0,0,51.7,96.26Z"/><path class="cls-4" d="M56.06,138a14.94,14.94,0,0,0,8.52-2.7V101.59c-2.11-1-6.09-3.83-8.52-3.83-9.76,0-17.4,8.49-17.4,19.61S46.3,138,56.06,138Z"/><ellipse cx="98.9" cy="119.89" rx="3.11" ry="4.67"/><line class="cls-5" x1="89.91" y1="110.94" x2="108.89" y2="108.78"/><ellipse cx="136.8" cy="119.89" rx="3.11" ry="4.67"/><line class="cls-5" x1="146.79" y1="110.94" x2="127.82" y2="108.78"/><path class="cls-6" d="M108.81,134.92h21.33"/><ellipse class="cls-7" cx="85.09" cy="126.11" rx="8.64" ry="5.24"/><ellipse class="cls-7" cx="145.44" cy="126.11" rx="8.64" ry="5.24"/><path class="cls-2" d="M104,84.56s-9,15.33-18.93,20.83-14.55,29-13.39,40.43c0,0-11.35-1.6-11.35-17.6S49.69,105.63,49.69,97.76V77.22H104Z"/></g></g></svg>