<svg xmlns="http://www.w3.org/2000/svg" viewBox="0 0 196.67 196.67"><defs><style>.cls-1{fill:#f7a88f;}.cls-2{fill:#111;}.cls-3{fill:#fff3f3;}.cls-4{fill:none;stroke:#000;stroke-linecap:round;stroke-miterlimit:10;}.cls-5{fill:red;opacity:0.04;}</style></defs><g id="Layer_2" data-name="Layer 2"><g id="Layer_1-2" data-name="Layer 1"><rect class="cls-1" width="196.67" height="196.67" rx="8"/><path class="cls-2" d="M91.1,143.61h15.6a34.09,34.09,0,0,1,34.09,34.09v19a0,0,0,0,1,0,0H57a0,0,0,0,1,0,0v-19A34.09,34.09,0,0,1,91.1,143.61Z"/><path class="cls-3" d="M54.1,129.05s9.18,13.69,22.35,19.17,41.63,5.46,55.65.9,20.44-12.21,20.44-26.3-10.85-17-10.85-26.56h0A11.7,11.7,0,0,0,130,84.56H63.62a11.7,11.7,0,0,0-11.71,11.7Z"/><path d="M55.88,119.52s5.26-19,8.7-15.34h0s.72,11.15,4.87,15.29c0,0,7.09-25,12.91-25A10,10,0,0,1,91.09,105s9.6-4.76,11.41-10.47c0,0,10.16,4,10.16,10,0,0,3.57-12.37,9.48-12.37,0,0,9.86,4.46,9.86,12.93,0,0,5.21-1.59,7.78-8.8,0,0,3.12,4,1.86,7.77,0,0,7.42-6.9,7.42-19.51s0-44.24-33.33-44.24c-24.82,0-30.42,11.66-30.42,11.66S69,42.38,54.48,51.19,35.29,68.44,35.29,87.59s16.48,47.33,16.48,47.33h4.11Z"/><path class="cls-3" d="M56.06,138a14.94,14.94,0,0,0,8.52-2.7V101.59c-2.11-1-6.09-3.83-8.52-3.83-9.76,0-17.4,8.49-17.4,19.61S46.3,138,56.06,138Z"/><ellipse cx="98.9" cy="119.89" rx="3.11" ry="4.67"/><path class="cls-4" d="M89.91,111.62s4.42-2.67,8.66-2.89,10.32,2.21,10.32,2.21"/><ellipse cx="136.8" cy="119.89" rx="3.11" ry="4.67"/><path class="cls-4" d="M146.79,111.62s-4.41-2.67-8.65-2.89-10.32,2.21-10.32,2.21"/><path class="cls-4" d="M108.81,134.92a19.84,19.84,0,0,0,21.33,0"/><ellipse class="cls-5" cx="85.09" cy="126.11" rx="8.64" ry="5.24"/><ellipse class="cls-5" cx="145.44" cy="126.11" rx="8.64" ry="5.24"/></g></g></svg>