<svg width="14" height="12" viewBox="0 0 14 12" fill="none" xmlns="http://www.w3.org/2000/svg">
<path d="M11.8819 8.68088L11.5073 8.34961C11.3717 8.50301 11.3432 8.72363 11.4356 8.90641L11.8819 8.68088ZM9.82629 10.1419L10.1 9.7235C9.95933 9.63149 9.78184 9.61631 9.6276 9.68311L9.82629 10.1419ZM10.8767 10.829L11.1504 10.4106V10.4106L10.8767 10.829ZM12.3166 9.54107L11.8703 9.7666L12.3166 9.54107ZM12.5 5.85671C12.5 6.77327 12.1407 7.63355 11.5073 8.34961L12.2564 9.01214C13.0307 8.13665 13.5 7.04686 13.5 5.85671H12.5ZM7 1.5C10.1415 1.5 12.5 3.54412 12.5 5.85671H13.5C13.5 2.80473 10.4859 0.5 7 0.5V1.5ZM1.5 5.85671C1.5 3.54412 3.85851 1.5 7 1.5V0.5C3.51407 0.5 0.5 2.80473 0.5 5.85671H1.5ZM7 10.2134C3.85851 10.2134 1.5 8.1693 1.5 5.85671H0.5C0.5 8.90869 3.51407 11.2134 7 11.2134V10.2134ZM9.6276 9.68311C8.84922 10.0202 7.95472 10.2134 7 10.2134V11.2134C8.08906 11.2134 9.11902 10.9931 10.025 10.6008L9.6276 9.68311ZM11.1504 10.4106L10.1 9.7235L9.55259 10.5604L10.603 11.2474L11.1504 10.4106ZM11.8703 9.7666C12.1011 10.2232 11.5785 10.6906 11.1504 10.4106L10.603 11.2474C11.8873 12.0875 13.4551 10.6852 12.7628 9.31554L11.8703 9.7666ZM11.4356 8.90641L11.8703 9.7666L12.7628 9.31554L12.3281 8.45535L11.4356 8.90641Z" fill="white"/>
</svg>
