<svg width="20" height="19" viewBox="0 0 20 19" fill="none" xmlns="http://www.w3.org/2000/svg">
<path d="M2.1882 18.4431L2.25891 18.9381H2.25891L2.1882 18.4431ZM1.05683 17.3118L0.561852 17.2411L1.05683 17.3118ZM1.81107 13.4462L2.16463 13.7998L1.81107 13.4462ZM1.52823 14.0119L2.02321 14.0826L1.52823 14.0119ZM6.05372 17.6889L5.70016 17.3353L6.05372 17.6889ZM5.48803 17.9717L5.41732 17.4768L5.48803 17.9717ZM18.5459 3.78245L18.8995 3.4289V3.4289L18.5459 3.78245ZM18.5459 5.19667L18.8995 5.55022L18.5459 5.19667ZM15.7175 0.954026L15.364 1.30758L15.7175 0.954026ZM14.3033 0.954026L13.9497 0.600472V0.600472L14.3033 0.954026ZM15.364 1.30758L18.1924 4.13601L18.8995 3.4289L16.0711 0.600473L15.364 1.30758ZM18.1924 4.84311L5.70016 17.3353L6.40727 18.0424L18.8995 5.55022L18.1924 4.84311ZM2.16463 13.7998L14.6568 1.30758L13.9497 0.600472L1.45752 13.0927L2.16463 13.7998ZM5.41732 17.4768L2.11749 17.9482L2.25891 18.9381L5.55874 18.4667L5.41732 17.4768ZM1.5518 17.3825L2.02321 14.0826L1.03326 13.9412L0.561852 17.2411L1.5518 17.3825ZM2.11749 17.9482C1.7875 17.9953 1.50466 17.7125 1.5518 17.3825L0.561852 17.2411C0.420431 18.231 1.26896 19.0795 2.25891 18.9381L2.11749 17.9482ZM1.45752 13.0927C1.22803 13.3222 1.07916 13.6199 1.03326 13.9412L2.02321 14.0826C2.03851 13.9755 2.08813 13.8763 2.16463 13.7998L1.45752 13.0927ZM5.70016 17.3353C5.62366 17.4118 5.52441 17.4615 5.41732 17.4768L5.55874 18.4667C5.88004 18.4208 6.17777 18.2719 6.40727 18.0424L5.70016 17.3353ZM18.1924 4.13601C18.3876 4.33127 18.3876 4.64785 18.1924 4.84311L18.8995 5.55022C19.4853 4.96443 19.4853 4.01469 18.8995 3.4289L18.1924 4.13601ZM16.0711 0.600473C15.4853 0.0146865 14.5355 0.0146859 13.9497 0.600472L14.6568 1.30758C14.8521 1.11232 15.1687 1.11232 15.364 1.30758L16.0711 0.600473ZM11.1213 4.13601L15.364 8.37865L16.0711 7.67154L11.8284 3.4289L11.1213 4.13601Z" fill="white"/>
</svg>
