<svg xmlns="http://www.w3.org/2000/svg" xmlns:xlink="http://www.w3.org/1999/xlink" viewBox="0 0 360 360"><defs><style>.cls-1{fill:none;}.cls-2{fill:#161c2d;}</style><symbol id="eyes_love" data-name="eyes/love" viewBox="0 0 360 360"><rect class="cls-1" width="360" height="360"/><path class="cls-2" d="M189.65,170.27l-.24.24-.25-.24a3.61,3.61,0,0,0-5.1,5.1l2.79,2.8a3.62,3.62,0,0,0,5.11,0l2.8-2.8a3.61,3.61,0,0,0-5.11-5.1Z"/><path class="cls-2" d="M254.46,170.27l-.25.24-.24-.24a3.61,3.61,0,0,0-5.11,5.1l2.8,2.8a3.62,3.62,0,0,0,5.11,0l2.79-2.8a3.61,3.61,0,0,0-5.1-5.1Z"/></symbol></defs><g id="Layer_2" data-name="Layer 2"><g id="eyes"><use width="360" height="360" xlink:href="#eyes_love"/></g></g></svg>