<svg xmlns="http://www.w3.org/2000/svg" xmlns:xlink="http://www.w3.org/1999/xlink" viewBox="0 0 360 360"><defs><style>.cls-1{fill:#161c2d;}.cls-2{fill:#fff;}</style><symbol id="background_default" data-name="background/default" viewBox="0 0 360 360"><rect class="cls-1" width="360" height="360"/><circle class="cls-2" cx="64.5" cy="55.63" r="1"/><circle class="cls-2" cx="158.83" cy="152.96" r="0.5"/><circle class="cls-2" cx="197.5" cy="305.29" r="0.92"/><circle class="cls-2" cx="290.17" cy="55.63" r="1"/><circle class="cls-2" cx="327.17" cy="116.63" r="1"/><circle class="cls-2" cx="300.83" cy="248.29" r="0.5"/><circle class="cls-2" cx="347.63" cy="279.66" r="1.25"/><circle class="cls-2" cx="260.5" cy="331.63" r="1"/><circle class="cls-2" cx="159.67" cy="275.52" r="0.5"/><circle class="cls-2" cx="45.5" cy="252.96" r="0.5"/><circle class="cls-2" cx="87.5" cy="148.29" r="1"/><circle class="cls-2" cx="33.83" cy="127.96" r="1"/><circle class="cls-2" cx="133.5" cy="30.29" r="0.5"/><circle class="cls-2" cx="254.17" cy="85.29" r="0.5"/><circle class="cls-2" cx="241.83" cy="27.96" r="1.25"/><circle class="cls-2" cx="324.83" cy="48.63" r="0.5"/><circle class="cls-2" cx="50.5" cy="302.18" r="0.5"/><circle class="cls-2" cx="51.83" cy="171.4" r="0.5"/><circle class="cls-2" cx="19.39" cy="28.07" r="0.5"/><circle class="cls-2" cx="271.61" cy="178.74" r="0.5"/><circle class="cls-2" cx="308.06" cy="212.74" r="0.5"/><circle class="cls-2" cx="327.78" cy="332.63" r="0.5"/><circle class="cls-2" cx="224.72" cy="235.63" r="0.5"/><circle class="cls-2" cx="115.39" cy="171.85" r="0.5"/><circle class="cls-2" cx="169.39" cy="72.74" r="0.5"/><circle class="cls-2" cx="339.39" cy="143.9" r="0.5"/><circle class="cls-2" cx="126.5" cy="236.13" r="0.5"/><circle class="cls-2" cx="80.06" cy="98.52" r="0.5"/><circle class="cls-2" cx="203.39" cy="39.18" r="0.5"/><circle class="cls-2" cx="220.06" cy="117.4" r="0.5"/><circle class="cls-2" cx="83.61" cy="266.29" r="0.5"/><circle class="cls-2" cx="118.56" cy="333.13" r="0.5"/><circle class="cls-2" cx="21.61" cy="332.13" r="0.5"/><circle class="cls-2" cx="9.17" cy="208.74" r="0.5"/><circle class="cls-2" cx="182.5" cy="347.24" r="0.5"/></symbol></defs><g id="Layer_2" data-name="Layer 2"><g id="background"><use width="360" height="360" xlink:href="#background_default"/></g></g></svg>